<svg width="560" height="468" viewBox="0 0 560 468" fill="none" xmlns="http://www.w3.org/2000/svg">
<path d="M36.2947 396.835C36.2947 396.835 34.0006 396.175 33.7368 396.835C33.4754 397.495 32.1705 402.579 32.5285 402.762C32.8866 402.946 35.3784 403.534 35.3784 403.534C35.3784 403.534 41.4763 405.518 41.8696 405.027C42.263 404.537 44.0341 398.903 43.5748 398.659C43.1132 398.415 36.2947 396.835 36.2947 396.835Z" fill="#1A3A4A"/>
<path d="M42.1289 396.026V397.863L39.4392 406.133L33.9961 405.151L35.5388 395.841L42.1289 396.026Z" fill="#0F222B"/>
<path d="M74.5812 397.541C74.5812 397.541 75.5067 397.805 75.547 398.296C75.5866 398.787 76.1024 403.042 74.1291 403.534C74.1291 403.534 73.3329 398.824 74.5812 397.541Z" fill="#1A3A4A"/>
<path d="M74.0662 395.058C74.0662 395.058 76.073 400.98 72.9823 406.13C69.8923 411.281 64.5977 405.501 64.5977 405.501L66.0135 394.64L74.0662 395.058Z" fill="#0F222B"/>
<path d="M15.0934 320.999C14.9992 321.444 14.8885 321.908 14.5658 322.244C14.0736 322.755 13.2539 322.814 12.5191 322.83C10.5642 322.869 8.6069 322.838 6.65438 322.735C6.52721 322.728 6.39528 322.72 6.28696 322.658C6.03256 322.511 6.04671 322.168 6.09379 321.893C6.35289 320.315 6.61669 318.72 7.2809 317.253C7.44341 316.892 7.64596 316.522 7.99219 316.302C8.29837 316.107 8.6776 316.049 9.04501 316.012C10.6795 315.845 13.6754 315.77 15.0462 316.802C16.2191 317.68 15.3312 319.868 15.0934 320.999Z" fill="#1A3A4A"/>
<path d="M75.5845 279.82C76.168 280.121 86.4615 294.241 87.5689 296.823C87.8613 297.504 88.1859 298.843 88.5072 300.445C86.6768 299.523 82.4734 297.051 79.7825 292.682L66.9 285.397L63.627 279.027L64.3419 276.884C65.063 276.801 75.003 279.517 75.5845 279.82Z" fill="url(#paint0_linear)"/>
<path d="M66.1538 278.661C67.5342 279.332 68.8816 280.091 70.2331 280.768C71.0883 281.197 72.0259 281.578 72.8147 282.111C73.5076 282.579 73.8603 283.206 74.2185 283.923C74.633 284.75 74.9771 285.617 75.2689 286.488C75.5962 287.461 75.8034 288.497 76.6324 289.229C77.5044 290.001 78.7573 290.358 79.8452 290.767C80.5192 291.02 81.1899 291.278 81.8613 291.535C81.9157 291.649 81.97 291.762 82.0216 291.876C80.4039 291.342 78.7244 290.82 77.2709 290.026C75.7263 289.183 75.3963 287.879 74.8758 286.383C74.5344 285.406 74.1783 284.286 73.5612 283.423C72.8288 282.403 71.5122 281.921 70.3934 281.369C68.9145 280.638 67.3484 279.965 65.8594 279.2L66.1538 278.661Z" fill="#D6BCBA"/>
<path d="M120.23 285.672L116.846 282.517C116.846 282.517 91.4613 291.593 89.2694 292.611C87.0768 293.63 83.1813 295.849 82.1102 296.847C81.0391 297.846 76.9792 304.176 76.8652 305.059C76.7498 305.94 81.9157 312.088 82.2725 312.308C82.6293 312.529 89.8221 313.685 91.0716 312.853C92.3165 312.02 114.394 294.432 120.23 285.672Z" fill="#1A3A4A"/>
<path d="M61.4096 280.64C62.1668 280.482 72.9083 282.135 73.5509 282.372C74.1941 282.61 86.267 295.477 87.6554 297.91C89.0431 300.343 91.7293 312.082 91.7293 312.082C91.7293 312.082 87.5326 315.847 86.4856 315.793C85.438 315.738 79.8784 311.171 79.8784 311.171L60.8301 282.829L61.4096 280.64Z" fill="url(#paint1_linear)"/>
<path d="M76.4814 346.761C76.4814 346.761 87.351 354.3 88.121 359.88C88.8917 365.459 81.988 391.555 76.4814 394.793C70.9748 398.034 64.5353 396.413 64.1892 395.693C63.8451 394.974 62.4983 358.221 65.5621 351.286C68.6266 344.355 76.4814 346.761 76.4814 346.761Z" fill="url(#paint2_linear)"/>
<path d="M72.9766 346.365C75.0658 346.29 76.689 346.768 76.689 346.768C76.689 346.768 88.2018 354.443 89.0188 360.124C89.6358 364.425 85.5941 380.698 81.0627 389.782C79.9627 387.985 79.0466 384.878 79.7106 379.363C80.9474 369.122 81.2814 353.189 72.9766 346.365Z" fill="url(#paint3_linear)"/>
<path d="M55.7758 351.289C55.7758 351.289 58.4916 357.64 58.2957 359.231C58.1005 360.821 51.7126 391.349 47.782 394.529C43.851 397.713 43.8158 396.639 42.0516 396.742C40.2875 396.846 34.2485 395.977 33.7822 394.965C33.3182 393.953 31.6129 356.637 33.1628 353.522C34.7125 350.407 40.8857 348.193 40.8857 348.193C40.8857 348.193 50.3538 341.032 55.7758 351.289Z" fill="#1A3A4A"/>
<path d="M40.2141 348.198C40.2141 348.198 49.3952 341.556 55.1446 350.213C54.28 356.809 52.4946 370.141 51.3946 376.232C49.9016 384.5 44.7787 388.125 42.0748 390.88C40.5321 392.451 40.1459 394.965 40.0964 396.835C37.5385 396.659 33.1789 395.922 32.7785 395.084C32.291 394.07 30.508 356.661 32.1308 353.537C33.7512 350.416 40.2141 348.198 40.2141 348.198Z" fill="url(#paint4_linear)"/>
<path d="M44.5802 417.155C44.5802 417.155 45.1054 408.869 43.8901 407.505C42.6748 406.144 31.9818 403.873 30.4013 404.1C28.8209 404.326 25.4199 407.505 24.9323 408.526C24.4471 409.547 13.9967 451.318 15.9398 457.335C15.9398 457.335 20.071 460.285 22.1366 459.379C24.2022 458.472 42.232 431.797 44.5802 417.155Z" fill="url(#paint5_linear)"/>
<path d="M30.4037 403.55C31.2398 403.428 34.6291 404.014 37.8134 404.794C36.1388 411.372 31.327 430.011 30.1988 430.302C28.861 430.644 25.825 429.041 25.0948 430.302C24.3647 431.562 21.2887 441.623 21.7762 442.309C22.2614 442.997 24.6921 443.686 24.3271 444.487C23.9926 445.224 19.1501 455.055 16.3826 457.629C16.1047 457.449 15.9398 457.33 15.9398 457.33C13.9967 451.252 24.4472 409.052 24.9323 408.02C25.4198 406.99 28.8233 403.78 30.4037 403.55Z" fill="url(#paint6_linear)"/>
<path d="M79.4575 410.622C79.4575 410.622 78.2985 406.297 76.9115 405.54C75.5218 404.784 64.5247 403.281 62.9042 404.086C61.2838 404.891 59.4299 406.946 59.3146 408.134C59.1992 409.324 55.7256 457.768 56.189 458.309C56.6532 458.851 58.3092 459.552 58.3092 459.552H62.5582C62.5535 459.552 78.9934 428.897 79.4575 410.622Z" fill="url(#paint7_linear)"/>
<path d="M60.0566 460.256C60.9447 454.609 64.4539 444.437 64.647 443.886C64.8777 443.219 65.806 443.664 67.8101 443.219C69.8149 442.776 71.8264 430.457 71.9417 429.569C72.0571 428.68 68.4674 427.461 68.4674 427.461C69.8525 423.299 70.3542 409.102 70.4997 403.536C73.4488 403.915 76.2611 404.454 76.9185 404.821C78.3075 405.598 79.4645 410.037 79.4645 410.037C79.0004 428.794 62.5624 460.259 62.5624 460.259H60.0566V460.256Z" fill="url(#paint8_linear)"/>
<path d="M67.8872 403.502C66.4894 403.345 65.5417 401.781 65.7704 400.007C65.9984 398.234 67.3164 396.924 68.7135 397.081C70.1113 397.238 71.059 398.802 70.8303 400.576C70.6022 402.349 69.2843 403.659 67.8872 403.502Z" fill="#1A3A4A"/>
<path d="M68.704 397.086L70.4962 397.466C70.4962 397.466 71.9496 399.2 71.1816 401.2C70.4137 403.197 69.0031 403.534 69.0031 403.534L67.875 403.51L68.704 397.086Z" fill="#1A3A4A"/>
<path d="M20.8606 459.905L19.9703 467.438H3.95898V465.444C3.95898 465.444 13.9007 460.468 15.9286 457.333L20.8629 459.128V459.905H20.8606Z" fill="url(#paint9_linear)"/>
<path d="M13.0128 467.439H3.95898V465.446C3.95898 465.446 5.95631 464.447 8.34218 463.061C11.8752 463.736 12.7819 466.262 13.0128 467.439Z" fill="#1A3A4A"/>
<path d="M19.9787 467.439H16.3516C17.7483 464.515 19.5995 462.652 20.6476 461.774L19.9787 467.439Z" fill="#1A3A4A"/>
<path d="M15.6992 457.667C15.7887 457.553 15.8688 457.443 15.9395 457.333L20.8738 459.128V459.905L20.8338 460.252C20.4498 460.21 17.4586 459.823 15.6992 457.667Z" fill="#1A3A4A"/>
<path d="M55.1699 467.439H79.4606V465.743C79.4606 465.743 64.9402 461.658 62.356 459.436C59.7724 457.212 56.1921 458.311 56.1921 458.311L55.1699 467.439Z" fill="url(#paint10_linear)"/>
<path d="M61.7745 467.439H55.1699L55.8339 461.504C59.0467 462.863 60.9193 465.758 61.7745 467.439Z" fill="#1A3A4A"/>
<path d="M71.6653 463.354C75.6976 464.685 79.457 465.743 79.457 465.743V467.439H67.9395C68.8416 465.897 70.4996 464.327 71.6653 463.354Z" fill="#1A3A4A"/>
<path d="M77.1619 332.549C77.1619 332.549 80.3109 335.664 80.4309 336.953C80.551 338.245 78.3718 351.06 74.4978 352.908L70.623 352.27L77.1619 332.549Z" fill="url(#paint11_linear)"/>
<path d="M46.004 341.853C45.7991 341.072 42.0212 333.946 47.7846 332.023C53.5503 330.101 58.136 335.858 59.4177 341.406C60.6988 346.955 60.0442 353.74 56.9186 353.513C53.7931 353.289 46.004 341.853 46.004 341.853Z" fill="#C1CEE3"/>
<path d="M70.3424 287.975C70.4926 288.167 70.9024 291.117 70.9024 291.117C70.9024 291.117 75.531 304.418 76.466 309.342C77.401 314.267 39.3912 323.241 39.3912 323.241C39.3912 323.241 32.4148 315.536 30.5447 311.565C28.6746 307.594 34.0306 286.228 34.0306 286.228C34.0306 286.228 65.2409 281.54 70.3424 287.975Z" fill="#1A3A4A"/>
<path d="M76.9599 307.189C76.9599 307.189 55.7954 303.513 47.4173 310.48C39.0395 317.447 38.2129 322.866 38.2129 322.866C38.2129 322.866 47.5375 336.801 50.5403 340.382C53.5458 343.964 59.4508 355.962 68.7751 354.026C78.0994 352.091 80.4831 321.51 76.9599 307.189Z" fill="url(#paint12_linear)"/>
<path d="M70.9021 291.117C70.9021 291.117 72.3528 289.859 72.2496 289.471C72.1456 289.084 67.1736 276.408 66.3446 276.021C65.5156 275.633 51.5298 270.408 45.5212 270.118C39.5129 269.827 26.6953 275.149 23.9868 280.618C21.2782 286.085 27.3902 311.828 31.0173 314.633C31.0173 314.633 38.6509 314.052 39.3927 311.438C40.1347 308.825 38.7874 295.471 38.7874 295.471C38.7874 295.471 43.0341 289.859 45.1067 289.278C47.1794 288.697 64.0648 285.987 70.9021 291.117Z" fill="url(#paint13_linear)"/>
<path d="M73.6526 315.048C72.9181 314.798 72.0489 314.786 71.2762 314.73C67.9904 314.483 64.7072 314.789 61.5253 315.579C61.3389 315.625 61.1437 315.522 61.0894 315.348C60.1544 312.36 58.8264 309.52 57.1328 306.847C57.3823 306.808 57.6345 306.772 57.886 306.737C59.4857 309.3 60.748 312.019 61.6669 314.862C65.3598 313.984 69.2882 313.691 73.0617 314.254C74.4158 314.456 75.2824 315.048 75.5413 316.353C75.9042 318.177 75.8505 320.15 75.9773 322C75.994 322.229 75.7392 322.357 75.5299 322.32C72.6378 321.783 69.6792 321.631 66.7422 321.919C64.2619 322.163 61.471 322.584 59.6648 324.326C60.9955 326.535 61.8808 328.911 62.2953 331.414C64.8695 331.166 67.4558 331.194 70.0186 331.54C70.7557 331.638 72.0838 331.634 72.6284 332.222C73.2099 332.851 72.9906 334.146 73.0194 334.897C73.0711 336.201 73.0965 337.508 73.0919 338.815C73.0898 339.869 73.2548 341.107 72.953 342.135C72.788 342.696 72.4117 343.024 71.7826 343.083C70.5934 343.193 69.2198 342.931 67.981 342.779C69.7121 346.46 70.1856 350.856 67.9367 354.254C67.6349 354.29 67.3384 354.309 67.044 354.316C69.6108 350.9 69.0105 346.273 67.0977 342.555C66.9944 342.352 67.1144 342.034 67.4042 342.058C68.4498 342.148 69.4935 342.238 70.5391 342.329C71.2454 342.39 71.9543 342.621 72.3313 341.675C72.454 341.365 72.3621 340.894 72.3688 340.555C72.4117 338.597 72.3903 336.637 72.3078 334.679C72.289 334.222 72.3762 333.592 72.23 333.157C72.0348 332.569 71.7189 332.481 71.1394 332.378C70.087 332.188 69.0219 332.063 67.9528 331.986C65.9675 331.843 63.9822 331.894 62.0036 332.1C61.8667 332.116 61.683 331.988 61.6622 331.858C61.2638 329.227 60.3502 326.739 58.925 324.438C58.8425 324.304 58.8753 324.15 58.9793 324.038C60.7151 322.205 63.3624 321.67 65.8541 321.358C68.9844 320.966 72.1408 321.068 75.2428 321.598C75.1483 320.155 75.0732 318.709 74.941 317.268C74.8612 316.344 74.7264 315.414 73.6526 315.048Z" fill="#D6BCBA" fill-opacity="0.5"/>
<path d="M23.9021 280.806L28.926 282.88C28.926 282.88 34.1948 308.563 35.7987 308.776C37.4027 308.99 39.3905 307.278 39.3905 307.278C39.3905 307.278 40.1419 311.377 37.9773 312.925C37.683 313.09 37.3556 313.242 37.0094 313.378C36.8562 313.42 36.7149 313.475 36.576 313.539C34.1312 314.392 31.0128 314.63 31.0128 314.63C27.428 311.856 21.4102 286.644 23.9021 280.806Z" fill="#C1CEE3"/>
<path d="M52.317 349.089C52.317 349.089 46.5039 354.369 36.873 349.652L39.909 347.716C39.909 347.716 49.0781 343.727 52.317 349.089Z" fill="#C1CEE3"/>
<path d="M16.5759 318.252C16.5759 318.252 25.7286 308.624 27.349 303.91C28.9695 299.195 30.7807 284.411 28.6845 282.097C26.5859 279.782 22.3912 278.179 20.2949 279.782C18.1964 281.386 8.66447 293.141 8.37714 293.942C8.09215 294.742 5.23047 310.149 5.23047 311.128C5.23047 312.107 7.13826 318.252 7.13826 318.252H16.5759Z" fill="#1A3A4A"/>
<path d="M20.5824 278.92C22.834 277.261 27.3349 278.92 29.5843 281.314C29.8127 281.558 29.9988 281.939 30.1448 282.425C28.9861 287.199 25.9901 299.455 25.6981 299.824C25.333 300.284 18.0598 305.005 17.5087 305.463C17.0235 305.868 15.0474 316.219 14.5811 318.701H6.46473C6.46473 318.701 4.41797 312.347 4.41797 311.332C4.41797 310.321 7.4869 294.388 7.79308 293.559C8.10161 292.734 18.3307 280.577 20.5824 278.92Z" fill="url(#paint14_linear)"/>
<path d="M39.4256 319.935C39.4256 319.935 50.1989 332.877 51.2445 333.728C52.2902 334.58 61.5112 334.397 61.5112 334.397C61.5112 334.397 60.821 337.185 57.7948 337.763C57.7948 337.763 60.9391 340.261 61.5112 343.593C62.0833 346.928 63.6877 354.092 67.2063 354.1L66.7991 354.325C66.7991 354.325 61.5441 354.668 56.7746 348.735C52.0031 342.801 38.2715 322.955 38.2715 322.955C38.2715 322.955 38.8745 320.92 39.4256 319.935Z" fill="#C1CEE3"/>
<path d="M11.3168 293.775C11.2108 293.757 11.086 293.647 11.0695 293.543C10.8975 292.426 10.6597 291.323 10.3652 290.23C10.5419 290.014 10.7256 289.795 10.914 289.566C11.0765 290.129 11.2273 290.692 11.3568 291.262C11.4604 291.713 11.4204 292.611 11.6912 292.983C12.0139 293.425 12.9631 293.407 13.486 293.53C14.228 293.704 14.6895 293.882 15.422 293.585C17.5889 292.708 19.9372 291.944 22.0004 290.873C23.2345 290.233 24.0047 289.397 24.4287 288.136C24.7467 287.197 25.041 286.25 25.3802 285.316C26.0656 283.436 26.8146 281.575 27.613 279.736C27.8156 279.859 28.0111 279.989 28.2042 280.124C27.4647 281.842 26.7651 283.575 26.1245 285.326C25.5027 287.025 25.2248 289.225 23.7739 290.508C22.2359 291.867 19.9796 292.444 18.0623 293.171C17.4099 293.42 16.7598 293.678 16.1357 293.979C15.7895 294.146 15.3349 294.522 14.9604 294.573C14.5294 294.63 13.9406 294.32 13.5214 294.217C12.7912 294.04 12.0563 293.898 11.3168 293.775Z" fill="#D6BCBA"/>
<path d="M37.2045 347.716C37.2045 347.716 38.368 343.868 37.7156 342.892C37.0632 341.913 22.6747 322.48 21.1155 321.958C19.5563 321.437 16.2966 319.871 15.517 319.937C14.7374 320.003 3.39664 320.588 2.33442 321.567C1.27214 322.546 0.421875 326.003 0.421875 326.003C0.421875 326.003 13.3195 346.02 37.2045 347.716Z" fill="#1A3A4A"/>
<path d="M15.4716 319.391C16.2724 319.323 19.6193 320.953 21.2185 321.499C22.8201 322.042 37.5878 342.293 38.2591 343.314C38.8526 344.216 37.9859 347.457 37.7786 348.191C34.8463 347.525 23.2983 344.653 19.1836 339.983C19.1836 339.983 19.1105 336.245 18.8208 336.109C18.5477 335.981 5.76078 325.716 3.00977 320.676C6.16589 319.904 14.7862 319.448 15.4716 319.391Z" fill="url(#paint15_linear)"/>
<path d="M37.7894 348.188C37.7894 348.188 44.3136 351.174 48.473 349.515L52.4816 346.34C52.4816 346.34 56.4221 352.45 58.942 350.912V349.564L59.7361 349.612L60.6992 346.959C60.6992 346.959 60.9018 343.073 60.6992 342.458C60.4967 341.842 57.0982 337.719 56.6904 337.719C56.2853 337.719 51.5654 338.003 51.5654 338.003L53.544 336.533C53.544 336.533 60.7744 337.681 61.5095 334.401C61.5095 334.401 51.6151 333.596 51.2099 333.216L45.6796 337.198C45.6796 337.198 47.3024 333.358 43.5481 332.553C43.5481 332.553 42.8368 336.06 42.5329 336.298C42.2291 336.535 39.1837 340.942 39.1837 340.942L38.8799 343.074L38.2675 343.316C38.2699 343.312 37.5067 345.916 37.7894 348.188Z" fill="url(#paint16_linear)"/>
<path d="M58.9167 351.192C58.1507 348.834 57.6725 346.539 56.474 344.304C56.1111 343.628 55.8146 343.092 54.9997 342.782C54.3921 342.55 53.4946 342.61 52.8467 342.667C51.4617 342.79 50.2987 343.322 49.1303 343.998C48.9277 344.114 48.6828 343.822 48.8735 343.679C49.8936 342.915 51.1626 342.484 52.451 342.326C53.5181 342.196 55.2023 342.08 56.0454 342.86C57.0112 343.754 57.5384 345.463 58.0005 346.638C58.5606 348.059 59.1286 349.635 59.1917 351.159C59.2018 351.315 58.961 351.333 58.9167 351.192Z" fill="#BFC8DB"/>
<path d="M61.5067 334.397C61.5067 334.397 52.2012 333.399 51.2072 333.212L47.7871 335.673C47.7871 335.673 50.9006 333.768 52.0456 334.014C53.1898 334.261 60.8916 335.289 61.5067 334.397Z" fill="white"/>
<path d="M59.9346 349.091C59.9346 349.141 59.9346 349.189 59.9346 349.24C59.9326 349.292 59.8424 349.287 59.8501 349.237C59.857 349.189 59.8646 349.139 59.8716 349.091C59.8743 349.07 59.9083 349.063 59.9132 349.086C59.9201 349.134 59.9277 349.182 59.9346 349.228C59.9444 349.285 59.8521 349.294 59.8501 349.237C59.8501 349.187 59.8501 349.139 59.8501 349.088C59.8473 349.036 59.9346 349.038 59.9346 349.091Z" fill="black"/>
<path d="M60.215 348.107C60.3847 346.719 60.2861 345.327 59.7743 344.007C59.3645 342.949 58.6958 341.496 57.8292 340.678C56.734 339.646 54.308 340.181 52.9914 340.471C51.6513 340.769 50.2595 341.085 49.0744 341.758C48.8531 341.886 48.6858 341.574 48.8814 341.437C50.1978 340.524 52.155 340.185 53.7359 339.913C54.8942 339.715 56.8399 339.389 57.8668 340.11C58.8561 340.805 59.5463 342.355 60.003 343.386C60.6764 344.911 60.9521 346.541 60.3967 348.129C60.3659 348.217 60.2009 348.211 60.215 348.107Z" fill="#BFC8DB"/>
<path d="M51.2088 333.212C51.2397 333.24 51.3222 333.271 51.449 333.302C52.1016 334.602 53.3189 335.796 54.5866 336.648C53.9554 336.593 53.5429 336.529 53.5429 336.529L53.3451 336.674C52.2451 335.781 51.2182 334.621 50.9473 333.399L51.2088 333.212Z" fill="#1A3A4A"/>
<path d="M57.8027 334.73C57.8288 335.22 57.8785 336.124 58.2527 336.523C58.2715 336.542 58.2856 336.562 58.2977 336.582C58.0341 336.624 57.7678 336.655 57.5015 336.676C57.299 336.304 57.252 335.792 57.2138 335.438C57.1648 334.974 57.1621 334.492 57.2118 334.016C57.4096 334.036 57.6048 334.054 57.798 334.071C57.7933 334.29 57.7913 334.51 57.8027 334.73Z" fill="#1A3A4A"/>
<path d="M47.791 335.673L48.2526 335.341C48.4599 335.833 48.58 336.348 48.9286 336.79C49.2537 337.202 49.7627 337.499 49.9955 337.972C50.0169 337.998 50.0337 338.029 50.0431 338.062C50.0451 338.069 50.0451 338.073 50.0478 338.08C50.0967 338.289 49.8942 338.498 49.6614 338.434C49.3811 338.359 49.2912 338.08 49.1054 337.888C48.8603 337.633 48.5847 337.409 48.3798 337.121C48.0925 336.715 47.8781 336.188 47.791 335.673Z" fill="#1A3A4A"/>
<path d="M56.2117 337.732C56.2117 337.732 55.3492 339.074 55.7449 339.88H56.6779C56.6779 339.88 55.5028 341.822 55.6416 342.962C55.7805 344.101 55.6295 343.136 55.6295 343.136C55.6295 343.136 53.2411 345.146 52.9138 346.968L52.4785 346.336C52.4785 346.336 52.8172 343.369 54.9984 342.779C54.9984 342.779 55.3284 341.067 55.4974 340.073L54.7442 339.977C54.7442 339.977 54.4826 338.285 55.0594 337.79L56.2117 337.732Z" fill="#1A3A4A"/>
<path d="M60.5809 342.233L59.882 343.734C59.882 343.734 58.4333 346.838 57.731 346.762L57.7787 347.476C57.7787 347.476 55.468 348.167 54.582 349.016L55.2185 349.65C55.2185 349.65 57.0791 348.258 58.2944 348.358L58.1455 347.52C58.1455 347.52 59.766 345.382 59.9759 344.61C59.9759 344.61 60.5957 343.481 60.7533 342.804L60.5809 342.233Z" fill="#1A3A4A"/>
<path d="M51.5645 337.999L48.7945 338.909C48.7945 338.909 49.3243 340.678 49.6167 341.017L49.3571 341.391C49.3571 341.391 49.3102 342.834 49.7623 343.129L49.6167 343.501C49.6167 343.501 49.8166 346.983 51.0956 347.437L50.1815 348.161C50.1815 348.161 48.632 345.463 48.924 343.929L48.8063 341.657L48.5707 338.674L48.248 338.447L51.5645 337.999Z" fill="#1A3A4A"/>
<path d="M45.998 335.865C45.998 335.865 43.7251 336.036 42.9502 335.128L42.6582 336.067C42.6582 336.067 44.5942 337.557 45.8449 336.676L45.998 335.865Z" fill="#1A3A4A"/>
<path d="M43.5682 339.273C43.5682 339.273 42.0444 338.705 41.4296 337.735L40.8809 338.505L42.6568 340.115L43.5682 339.273Z" fill="#1A3A4A"/>
<path d="M38.4559 348.468C38.0343 348.301 37.7894 348.189 37.7894 348.189C37.5067 345.916 38.2699 343.312 38.2699 343.312L38.8822 343.07C38.8846 343.07 39.5723 345.522 38.4559 348.468Z" fill="#1A3A4A"/>
<path d="M29.1758 275.567C34.2373 272.307 41.4445 269.92 45.5192 270.118C48.0323 270.239 51.9443 271.224 55.7037 272.357C55.7037 272.357 46.9771 271.178 37.6243 274.485C34.1031 275.73 31.3026 275.873 29.1758 275.567Z" fill="#C1CEE3"/>
<path d="M64.4005 262.299C64.4005 262.299 65.1216 259.655 65.1216 258.463C65.1216 257.27 62.3441 248.402 60.8464 246.693C59.3487 244.981 46.6348 237.358 42.8051 236.632C42.8051 236.632 41.4719 235.233 38.6973 235.233C35.9205 235.233 31.0356 235.077 28.7039 238.034C28.7039 238.034 23.0417 240.781 18.2676 246.589C18.2676 246.589 17.3796 246.383 16.2679 248.404C15.1585 250.426 13.6582 253.433 13.6582 253.433C13.6582 253.433 16.1007 263.908 16.6565 264.323C17.2124 264.739 17.9331 264.634 17.9331 264.634C17.9331 264.634 18.9883 266.812 19.5983 267.122C20.2083 267.432 28.7039 272.929 37.9178 272.307C47.134 271.687 59.238 269.3 64.4005 262.299Z" fill="url(#paint17_linear)"/>
<path d="M14.5352 218.009C14.7495 217.95 14.9261 218.183 15.0698 218.519C15.1522 218.553 15.2206 218.614 15.2606 218.711C19.7451 229.749 22.9553 241.208 24.8372 252.881C24.9032 253.297 24.2225 253.475 24.1565 253.057C22.4184 242.27 19.5425 231.667 15.5762 221.411C15.3407 221.483 15.051 221.393 14.8696 221.221C14.653 221.014 14.554 220.726 14.4692 220.449C14.3468 220.044 13.6873 218.245 14.5352 218.009Z" fill="#F89E3D"/>
<path d="M23.9844 263.388V251.618C23.9844 251.618 25.6496 247.729 27.0933 247.159C28.5371 246.589 47.542 244.169 52.8533 244.411C56.3175 244.57 59.205 245.799 60.7953 246.638C60.8114 246.655 60.8301 246.675 60.8469 246.693C62.3446 248.404 65.122 257.27 65.122 258.463C65.122 258.67 65.1006 258.922 65.063 259.195C64.5258 259.65 63.6686 259.978 62.291 259.862C58.5718 259.552 56.4497 258.071 51.6802 258.577C46.9131 259.083 36.7948 264.477 32.1666 264.425C27.5362 264.374 23.9844 263.388 23.9844 263.388Z" fill="url(#paint18_radial)"/>
<path d="M41.8001 245.097C41.8001 245.097 42.1958 243.892 36.5666 242.337C30.9375 240.781 28.707 238.034 28.707 238.034C31.0388 235.077 35.9237 235.233 38.7006 235.233C41.4774 235.233 42.8082 236.632 42.8082 236.632C45.4179 239.952 47.441 244.605 47.441 244.605L41.8001 245.097Z" fill="url(#paint19_linear)"/>
<path d="M49.0158 218.48C49.4235 218.368 49.6965 219.315 49.8662 220.022C52.5604 227.614 54.6189 235.389 56.0227 243.28L55.2219 242.79C53.9287 235.715 52.1084 228.736 49.7743 221.899C49.6167 221.874 49.4611 221.799 49.3477 221.692C49.1311 221.485 49.0323 221.197 48.9475 220.92C48.8274 220.514 48.1678 218.715 49.0158 218.48Z" fill="#F89E3D"/>
<path opacity="0.5" d="M30.9794 246.455C36.1069 248.982 43.7356 256.848 46.6233 259.938C45.3372 260.392 43.9712 260.913 42.5957 261.437C39.1028 255.338 31.1136 249.086 28.1719 246.908C28.8596 246.781 29.8253 246.624 30.9794 246.455Z" fill="#2C6480"/>
<path opacity="0.8" d="M52.8851 258.489C48.893 253.974 41.1229 248.448 37.0059 245.659C40.6212 245.223 44.5993 244.809 47.8214 244.58C56.458 248.389 62.2852 259.864 62.2852 259.864C58.896 259.58 56.8329 258.326 52.8851 258.489Z" fill="#2C6480"/>
<path d="M57.4666 251.156H51.6797C51.6797 251.156 52.3746 254.075 55.3847 254.075C57.7798 254.073 57.4666 251.156 57.4666 251.156Z" fill="#3EFAFF"/>
<path d="M40.9434 251.376H32.1699C32.1699 251.376 33.2227 255.948 37.7849 255.948C41.4191 255.948 40.9434 251.376 40.9434 251.376Z" fill="#3EFAFF"/>
<path d="M62.2935 263.452C62.2935 263.452 43.1332 274.991 23.987 265.379C23.987 265.379 22.8164 264.2 22.4961 263.452C22.1758 262.706 18.1035 263.811 18.1035 263.811C18.1035 263.811 19.7452 265.985 20.1809 266.845C20.6166 267.704 42.8129 279.347 62.2935 263.452Z" fill="#C1CEE3"/>
<path d="M54.1362 261.973C54.041 261.743 51.5801 262.222 51.5801 262.222C51.5801 262.222 53.2871 264.907 52.6251 266.767L53.6835 266.725C53.6861 266.725 55.4132 265.005 54.1362 261.973Z" fill="#B192B7"/>
<path d="M50.7364 263.356C50.7364 263.356 51.8042 265.223 51.2227 266.272L50.1643 266.314C50.1643 266.314 49.674 264.204 49.1797 263.711L50.7364 263.356Z" fill="#B192B7"/>
<path d="M48.0022 264.546C48.0022 264.546 48.7193 265.638 48.5456 266.121C48.5456 266.121 46.6005 266.528 46.4678 266.203C46.3351 265.878 46.4822 264.815 48.0022 264.546Z" fill="#B192B7"/>
<path d="M55.3841 263.072L56.7557 263.018C56.7557 263.018 56.592 264.603 56.1252 265.576L55.3418 265.607C55.3438 265.607 55.7503 263.351 55.3841 263.072Z" fill="#B192B7"/>
<path d="M57.2872 264.874C57.2872 264.874 57.2732 263.691 57.5448 263.643C57.8158 263.595 58.9566 264.468 58.7279 264.625C58.5019 264.779 57.2872 264.874 57.2872 264.874Z" fill="#B192B7"/>
<path d="M16.6566 264.324C16.1007 263.908 13.6582 253.433 13.6582 253.433C13.6582 253.433 15.1562 250.426 16.2679 248.405C17.3772 246.383 18.2675 246.589 18.2675 246.589C18.2675 246.589 20.7665 246.693 21.3765 246.796C21.9865 246.9 23.9862 251.619 23.9862 251.619C23.9862 251.619 25.152 262.249 23.9862 263.388C22.8203 264.53 17.9355 264.634 17.9355 264.634C17.9355 264.634 17.2124 264.737 16.6566 264.324Z" fill="url(#paint20_linear)"/>
<path d="M23.9841 251.618C23.9841 251.618 24.0924 252.6 24.2078 253.999L23.9841 254.076C23.9841 254.076 21.9185 248.562 20.3828 248.562C18.8471 248.562 17.2432 246.54 18.2654 246.591C18.2654 246.591 20.7644 246.694 21.3744 246.798C21.9844 246.899 23.9841 251.618 23.9841 251.618Z" fill="white"/>
<path d="M58.7538 259.864C58.7538 259.864 53.3787 256.685 45.6016 260.924C45.6016 260.924 53.3411 258.887 58.7538 259.864Z" fill="white"/>
<path d="M72.2486 289.471L67.3658 277.739C67.3658 277.739 57.0401 271.885 50.2854 274.247C43.5304 276.61 57.5324 277.118 61.9183 278.308C66.3061 279.501 71.3485 286.924 72.2486 289.471Z" fill="white"/>
<path d="M120.395 287.149C120.395 287.149 116.818 285.066 116.227 282.564C116.225 282.566 115.389 285.995 120.395 287.149Z" fill="#F4D6D4"/>
<path d="M41.6555 316.498C41.6555 316.498 39.9715 321.8 40.8947 323.241C41.818 324.684 39.0977 320.61 39.0977 320.61L41.6555 316.498Z" fill="#C1CEE3"/>
<path d="M11.9844 321.903C12.6556 321.25 13.7414 321.206 14.7118 321.206C15.6045 321.206 16.5207 321.21 17.3592 321.492C18.4662 321.866 19.3258 322.682 20.1266 323.485C25.0115 328.38 29.1544 333.752 32.9111 339.435C30.0754 336.179 26.0313 333.429 22.6797 330.631C19.1515 327.683 15.5857 324.774 11.9844 321.903Z" fill="white"/>
<path d="M17.1517 285.065C15.9058 286.625 14.6551 288.241 14.0781 290.111C14.6458 290.233 15.171 289.817 15.5784 289.427C17.14 287.936 18.6403 286.345 20.541 285.254C21.9754 284.429 25.5908 282.13 23.7136 280.047C21.7587 277.875 18.0421 283.952 17.1517 285.065Z" fill="white"/>
<path d="M51.7284 295.705L51.4242 290.959L56.6802 290.666L55.9081 291.477L62.6618 300.397L52.5782 294.813L51.7284 295.705Z" fill="url(#paint21_linear)"/>
<path d="M65.6152 296.392L65.8217 299.607L66.0574 303.282L62.1149 303.501L58.6655 303.693L60.3643 301.908L64.1427 301.698L63.9165 298.176L65.6152 296.392Z" fill="#C1CEE3"/>
<path d="M57.5153 303.757L57.0227 303.784C54.8453 303.906 52.9749 302.359 52.8445 300.329L52.5549 295.813L54.7739 296.995L54.9015 298.985C55.0043 300.592 56.4852 301.817 58.2092 301.721L59.4407 301.652L57.5153 303.757Z" fill="url(#paint22_linear)"/>
<path d="M56.886 291.423L61.3211 291.177C63.4987 291.056 65.3639 292.526 65.4943 294.555L65.5431 295.32L63.5307 297.354L63.4373 295.899C63.3345 294.292 61.8536 293.068 60.1295 293.164L58.1587 293.274L56.886 291.423Z" fill="url(#paint23_linear)"/>
<path d="M117.318 288.278L115.363 283.235L127.271 273.972L134.546 268.781L140.562 265.878C140.562 265.878 142.145 268.015 137.412 270.294L144.628 271.722C144.628 271.722 146.053 273.82 144.684 274.737C143.315 275.655 137.094 276.058 137.094 276.058L142.356 276.913L145.169 280.071C145.169 280.071 141.172 280.404 140.079 279.497L135.811 279.559L131.835 282.121L128.548 284.165L130.15 285.359C130.15 285.359 133.336 284.901 133.905 286.15C134.475 287.399 133.667 289.012 133.667 289.012C133.667 289.012 125.212 288.93 124.012 288.39C122.813 287.849 117.318 288.278 117.318 288.278Z" fill="url(#paint24_linear)"/>
<path d="M130.106 278.673C131.393 277.753 132.783 276.964 134.252 276.32C134.302 276.298 134.352 276.28 134.401 276.26L133.455 273.975C132.248 274.618 131.017 275.221 129.809 275.859C129.681 275.926 129.57 275.744 129.696 275.674C130.942 274.982 132.203 274.109 133.526 273.392L133.588 272.576C132.456 273.142 131.31 273.675 130.152 274.137C130.114 274.155 130.069 274.159 130.027 274.148C129.986 274.136 129.951 274.11 129.93 274.075C129.908 274.04 129.902 273.998 129.913 273.959C129.924 273.92 129.951 273.887 129.988 273.865C130.935 273.255 131.932 272.708 132.944 272.183L131.587 270.896L132.898 269.96L134.291 271.498C134.918 271.184 135.546 270.871 136.166 270.551C136.517 270.369 136.882 270.188 137.245 270L136.099 268.034L138.108 267.064L138.684 269.157C139.772 268.401 140.563 267.436 140.405 265.956L140.566 265.878C140.566 265.878 142.149 268.015 137.417 270.294L144.633 271.722C144.939 272.192 145.15 272.709 145.256 273.249C145.277 273.57 145.209 273.89 145.058 274.179C144.907 274.467 144.677 274.714 144.393 274.896C142.597 275.701 137.098 276.058 137.098 276.058L137.898 276.188C137.845 276.196 137.792 276.204 137.739 276.212C138.541 276.337 139.344 276.461 140.146 276.586C140.376 276.622 140.625 276.646 140.878 276.672L142.027 276.859C142.116 276.884 142.205 276.913 142.292 276.947C142.351 276.971 142.409 276.999 142.465 277.03L144.622 279.453C144.755 279.614 144.887 279.775 145.021 279.935C145.058 279.976 145.081 280.026 145.09 280.078C144.979 280.086 144.76 280.1 144.471 280.112C143.879 279.327 143.157 278.105 142.296 277.578L141.548 280.004L140.084 279.497L140.297 277.008V277.009C139.499 276.897 138.668 276.845 137.996 276.737C137.454 276.65 136.908 276.54 136.362 276.468L136.619 279.547L135.666 279.538L133.545 277.131C132.466 277.724 131.406 278.402 130.256 278.858C130.139 278.904 129.985 278.762 130.106 278.673ZM134.857 271.924L134.944 272.709C135.772 272.354 136.662 272.135 137.57 272.063C138.019 272.034 138.467 272.009 138.916 271.985C138.951 271.702 139.002 271.275 139.031 270.981C138.401 270.881 137.771 270.785 137.139 270.695C136.387 271.108 135.626 271.521 134.857 271.924ZM141.184 271.358C141.059 271.334 140.934 271.312 140.809 271.289L140.63 271.904C141.274 271.876 141.917 271.848 142.56 271.821C142.736 271.813 142.923 271.795 143.116 271.775C142.468 271.634 141.823 271.48 141.184 271.358ZM144.659 272.206C144.118 272.223 143.44 272.326 143.232 272.335C142.552 272.364 141.871 272.392 141.191 272.42C141.05 272.426 140.909 272.43 140.768 272.436L140.776 272.436L141.503 275.183C142.16 275.091 142.809 274.959 143.447 274.787C144.764 274.4 144.871 273.287 144.659 272.206ZM139.184 275.541H139.183L138.9 272.495C138.303 272.512 137.706 272.531 137.11 272.557C136.301 272.615 135.518 272.846 134.822 273.235L136.012 276.002C136.105 276.005 136.199 276.01 136.293 276.017C137.251 275.838 138.218 275.688 139.184 275.541Z" fill="#1A3A4A"/>
<path d="M123.371 288.228L121.111 288.117L125.45 283.181C125.445 283.164 125.445 283.146 125.45 283.129C125.454 283.111 125.462 283.095 125.474 283.081C125.486 283.067 125.502 283.057 125.519 283.049C125.537 283.042 125.555 283.038 125.575 283.039C126.69 283.084 127.774 283.395 128.723 283.943L128.548 284.165L130.15 285.359C130.15 285.359 132.188 285.067 133.296 285.589C133.874 286.043 134.081 286.749 134.089 287.51C134.031 288.028 133.888 288.534 133.667 289.011C133.667 289.011 133.521 289.01 133.269 289.006C133.377 288.398 133.57 287.779 133.522 287.185C133.421 285.948 132.287 285.582 131.18 285.721L131.671 288.976L130.019 288.93L130.277 285.901C130.22 285.89 130.168 285.863 130.127 285.824C129.812 285.482 129.464 285.167 129.087 284.883L127.936 288.842L126.173 288.726C126.173 288.726 127.352 284.752 127.713 284.043C127.197 283.793 126.658 283.586 126.103 283.426L123.371 288.228Z" fill="#1A3A4A"/>
<path d="M115.477 283.017L130.87 271.376C132.454 270.179 134.149 269.115 135.937 268.199L139.958 266.138" stroke="#1A3A4A" stroke-width="0.0454701"/>
<path d="M115.363 283.235L117.318 288.278L118.758 288.189L115.709 282.965L115.363 283.235Z" fill="#1A3A4A"/>
<path d="M92.5356 306.013C93.2653 305.608 112.657 291.592 119.36 286.743L119.553 286.922C113.569 295.823 91.0909 313.784 89.8212 314.635C89.5207 314.836 88.8815 314.928 88.082 314.948C89.284 312.184 91.8669 306.386 92.5356 306.013Z" fill="url(#paint25_linear)"/>
<g filter="url(#filter0_d)">
<path d="M519.369 132.292V144.889V291.689C519.369 304.093 510.013 310.1 505.335 311.554C409.173 328.511 212.899 363.104 197.097 365.817C181.295 368.53 177.691 358.872 177.865 353.704V16.4994C178.281 0.995723 190.166 1.9647 196.058 4.38715C296.551 39.1089 499.825 109.328 508.974 112.428C518.122 115.529 519.716 126.963 519.369 132.292Z" stroke="white" stroke-width="0.560502"/>
</g>
<g opacity="0.5">
<path opacity="0.5" d="M539.68 170.993V184.405V340.71C539.68 353.916 529.904 360.312 525.017 361.86C424.55 379.915 219.656 419.712 203.148 422.601C186.639 425.49 182.707 412.242 182.888 406.74V47.7038C183.323 31.1964 196.112 27.0555 202.266 29.6348C307.259 66.6045 519.26 146.542 528.819 149.843C538.376 153.145 540.042 165.319 539.68 170.993Z" fill="white"/>
<path opacity="0.5" d="M539.68 170.993V184.405V340.71C539.68 353.916 529.904 360.312 525.017 361.86C424.55 379.915 219.656 419.712 203.148 422.601C186.639 425.49 182.707 412.242 182.888 406.74V47.7038C183.323 31.1964 196.112 27.0555 202.266 29.6348C307.259 66.6045 519.26 146.542 528.819 149.843C538.376 153.145 540.042 165.319 539.68 170.993Z" fill="#D75E00"/>
</g>
<g opacity="0.6" filter="url(#filter1_d)">
<path opacity="0.6" d="M539.681 170.993V184.405V340.71C539.681 353.915 530.316 360.312 525.634 361.86C429.385 379.915 232.933 416.747 217.117 419.636C201.301 422.525 197.694 412.241 197.866 406.739V47.7033C198.283 31.1959 210.18 32.2276 216.076 34.8069C316.661 71.7765 520.12 146.541 529.276 149.843C538.433 153.145 540.029 165.318 539.681 170.993Z" fill="white"/>
</g>
<g filter="url(#filter2_d)">
<path d="M71.4716 233.551L175.95 238.881C181.772 239.177 182.881 242.88 182.708 244.694V353.219C182.708 359.033 179.589 361.133 178.029 361.456C146.148 365.655 80.5164 374.246 73.0312 375.022C65.5459 375.797 64.7141 372.599 64.7141 369.693C64.5413 329.48 64.7141 247.419 64.7141 240.818C64.7141 236.942 64.714 233.551 71.4716 233.551Z" stroke="white" stroke-width="0.560502"/>
</g>
<path opacity="0.2" d="M197.868 47.7033C198.284 31.1959 210.181 32.2276 216.077 34.8069C279.287 58.0399 383.123 96.1991 453.834 122.169C431.774 164.821 390.189 183.838 372.154 188.016C340.765 182.686 281.942 181.826 297.758 221.031C317.527 270.037 311.804 297.894 283.19 335.55C260.299 365.677 255.27 399.376 255.617 412.46C235.014 416.313 220.9 418.944 217.117 419.636C201.302 422.524 197.695 412.241 197.868 406.739V47.7033Z" fill="white"/>
<g filter="url(#filter3_d)">
<path d="M217.456 81.345C223.694 82.8953 224.213 87.4817 223.694 89.5813V195.684C223.694 200.335 219.535 201.821 217.456 201.983C168.248 200.691 68.1709 198.106 61.5176 198.106C54.8642 198.106 53.8934 193.584 54.2399 191.324V47.4308C54.2399 41.6168 59.0914 41.7783 61.5176 42.5858L217.456 81.345Z" stroke="white" stroke-width="0.560502"/>
</g>
<g opacity="0.8" filter="url(#filter4_dd)">
<path opacity="0.8" d="M447.652 256.709L508.486 260.05C512.615 260.236 513.402 262.556 513.279 263.693V331.713C513.279 335.357 511.067 336.674 509.961 336.876C487.346 339.507 454.068 342.381 448.758 342.866C443.448 343.353 442.859 341.349 442.859 339.527C442.736 314.323 442.859 265.402 442.859 261.265C442.859 258.835 442.859 256.709 447.652 256.709Z" fill="white"/>
<path opacity="0.8" d="M447.652 256.709L508.486 260.05C512.615 260.236 513.402 262.556 513.279 263.693V331.713C513.279 335.357 511.067 336.674 509.961 336.876C487.346 339.507 454.068 342.381 448.758 342.866C443.448 343.353 442.859 341.349 442.859 339.527C442.736 314.323 442.859 265.402 442.859 261.265C442.859 258.835 442.859 256.709 447.652 256.709Z" fill="#D75E00"/>
<path opacity="0.8" d="M447.652 256.709L508.486 260.05C512.615 260.236 513.402 262.556 513.279 263.693V331.713C513.279 335.357 511.067 336.674 509.961 336.876C487.346 339.507 454.068 342.381 448.758 342.866C443.448 343.353 442.859 341.349 442.859 339.527C442.736 314.323 442.859 265.402 442.859 261.265C442.859 258.835 442.859 256.709 447.652 256.709Z" stroke="#FE7359" stroke-opacity="0.3" stroke-width="0.560502"/>
</g>
<path opacity="0.8" d="M456.006 256.807L508.942 260.147C512.535 260.334 513.22 262.655 513.113 263.791V331.818C513.113 335.462 511.188 336.778 510.226 336.981C490.546 339.612 461.589 342.486 456.969 342.972C452.348 343.458 451.835 341.454 451.835 339.632C451.728 314.425 451.835 265.5 451.835 261.362C451.835 258.932 451.835 256.807 456.006 256.807Z" fill="white"/>
<g opacity="0.6" filter="url(#filter5_d)">
<path opacity="0.6" d="M96.83 192.795C96.7959 189.307 93.6653 188.142 92.1051 187.996C79.7911 186.824 53.6026 184.302 47.357 183.587C41.1123 182.874 39.5896 186.571 39.6086 188.508C39.1531 195.135 38.259 210.034 38.3234 216.623C38.3877 223.212 42.2085 224.176 44.1113 223.834C58.6557 222.723 88.6795 220.492 92.422 220.455C96.1644 220.419 97.0712 217.503 97.057 216.05L96.83 192.795Z" fill="white"/>
</g>
<g opacity="0.5" filter="url(#filter6_d)">
<path opacity="0.5" d="M82.4258 160.348C82.4258 158.087 80.439 157.313 79.4456 157.209C71.6073 156.371 54.9363 154.571 50.9627 154.068C46.9882 153.566 45.9948 155.953 45.9948 157.209C45.6634 161.499 45.0005 171.148 45.0005 175.419C45.0005 179.689 47.4295 180.337 48.6445 180.128C57.9175 179.5 77.0607 178.244 79.4456 178.244C81.8295 178.244 82.4258 176.361 82.4258 175.419V160.348Z" fill="white"/>
</g>
<g filter="url(#filter7_dd)">
<path d="M352.954 253.424L422.153 257.305C426.851 257.522 427.746 260.218 427.606 261.54V340.572C427.606 344.806 425.089 346.335 423.831 346.57C398.106 349.628 360.253 352.967 354.213 353.531C348.173 354.096 347.502 351.767 347.502 349.65C347.362 320.366 347.502 263.524 347.502 258.717C347.502 255.894 347.502 253.424 352.954 253.424Z" fill="white"/>
<path d="M352.954 253.424L422.153 257.305C426.851 257.522 427.746 260.218 427.606 261.54V340.572C427.606 344.806 425.089 346.335 423.831 346.57C398.106 349.628 360.253 352.967 354.213 353.531C348.173 354.096 347.502 351.767 347.502 349.65C347.362 320.366 347.502 263.524 347.502 258.717C347.502 255.894 347.502 253.424 352.954 253.424Z" fill="#D75E00"/>
<path d="M352.954 253.424L422.153 257.305C426.851 257.522 427.746 260.218 427.606 261.54V340.572C427.606 344.806 425.089 346.335 423.831 346.57C398.106 349.628 360.253 352.967 354.213 353.531C348.173 354.096 347.502 351.767 347.502 349.65C347.362 320.366 347.502 263.524 347.502 258.717C347.502 255.894 347.502 253.424 352.954 253.424Z" stroke="#FE7359" stroke-opacity="0.3" stroke-width="0.560502"/>
</g>
<g opacity="0.9" filter="url(#filter8_d)">
<path opacity="0.9" d="M361.026 253.752L422.934 257.618C427.137 257.833 427.938 260.519 427.812 261.836V340.562C427.812 344.78 425.561 346.303 424.436 346.537C401.421 349.583 367.556 352.909 362.152 353.471C356.749 354.034 356.148 351.714 356.148 349.605C356.023 320.434 356.148 263.812 356.148 259.024C356.148 256.212 356.148 253.752 361.026 253.752Z" fill="white"/>
</g>
<path d="M412.639 288.794L409.996 291.257V338.069L416.164 337.248L418.807 334.784L412.639 288.794Z" fill="#1B7FCE"/>
<path d="M418.807 287.973L412.639 288.794V335.605L418.807 334.703V287.973Z" fill="#048FFD"/>
<path d="M401.188 306.862L398.544 309.325V339.711L404.711 338.89L407.355 336.427L401.188 306.862Z" fill="#1B7FCE"/>
<path d="M407.355 306.04L401.188 306.862V337.248L407.355 336.345V306.04Z" fill="#048FFD"/>
<path d="M366.824 312.61L364.181 315.075V345.461L370.349 344.64L372.992 342.175L366.824 312.61Z" fill="#1B7FCE"/>
<path d="M372.992 311.789L366.824 312.61V342.996L372.992 342.093V311.789Z" fill="#048FFD"/>
<path d="M389.735 301.934L387.091 304.398V341.354L393.259 340.368L395.902 337.658L389.735 301.934Z" fill="#1B7FCE"/>
<path d="M395.902 301.113L389.735 301.934V338.89L395.902 337.797V301.113Z" fill="#048FFD"/>
<path d="M378.279 320.001L375.636 322.465V342.996L381.804 342.011L384.447 339.301L378.279 320.001Z" fill="#1B7FCE"/>
<path d="M384.447 319.181L378.279 320.002V340.533L384.447 339.44V319.181Z" fill="#048FFD"/>
<path d="M415.67 270.898L412.202 269.495L410.472 270.898V276.711H415.67L417.488 274.833L415.67 270.898Z" fill="#D0D8F0"/>
<path d="M412.238 269.255H417.436V275.069H412.238V269.255Z" fill="#E8EAF0"/>
<path d="M385.678 270.077L367.263 267.852L364.532 270.077V276.647H385.678L388.41 274.011L385.678 270.077Z" fill="#D0D8F0"/>
<path d="M367.174 267.612H388.32V274.182H367.174V267.612Z" fill="#E8EAF0"/>
<g filter="url(#filter9_d)">
<path d="M228.749 248.497L323.855 253.04C329.155 253.294 330.164 256.451 330.006 257.997V350.531C330.006 355.488 327.167 357.277 325.748 357.553C296.727 361.133 236.983 368.458 230.169 369.119C223.356 369.781 222.598 367.054 222.598 364.575C222.44 330.289 222.598 260.321 222.598 254.693C222.598 251.388 222.598 248.497 228.749 248.497Z" fill="#D75E00"/>
<path d="M228.749 248.497L323.855 253.04C329.155 253.294 330.164 256.451 330.006 257.997V350.531C330.006 355.488 327.167 357.277 325.748 357.553C296.727 361.133 236.983 368.458 230.169 369.119C223.356 369.781 222.598 367.054 222.598 364.575C222.44 330.289 222.598 260.321 222.598 254.693C222.598 251.388 222.598 248.497 228.749 248.497Z" stroke="#FE7359" stroke-opacity="0.3" stroke-width="0.560502"/>
</g>
<g opacity="0.9" filter="url(#filter10_d)">
<path opacity="0.9" d="M236.2 248.906L324.5 253.429C329.42 253.681 330.357 256.823 330.211 258.363V350.458C330.211 355.392 327.575 357.174 326.257 357.448C299.313 361.011 243.844 368.302 237.518 368.96C231.192 369.617 230.489 366.904 230.489 364.437C230.343 330.313 230.489 260.675 230.489 255.074C230.489 251.785 230.489 248.906 236.2 248.906Z" fill="white"/>
</g>
<path d="M314.071 269.781L310.647 267.442L307.834 269.781V276.564H314.071L316.814 274.012L314.071 269.781Z" fill="#D0D8F0"/>
<path d="M310.472 267.317H316.709V274.1H310.472V267.317Z" fill="#E8EAF0"/>
<path d="M267.916 274.012L243.245 266.621L240.333 268.812V276.564H265.282L267.916 274.012Z" fill="#D0D8F0"/>
<path fill-rule="evenodd" clip-rule="evenodd" d="M283.392 348.692C268.354 348.692 256.163 334.586 256.163 317.185C256.163 299.785 268.354 285.679 283.392 285.679C298.43 285.679 310.621 299.785 310.621 317.185C310.621 334.586 298.43 348.692 283.392 348.692ZM283.392 339.94C273.54 339.94 265.552 329.752 265.552 317.185C265.552 304.619 273.54 294.431 283.392 294.431C293.244 294.431 301.232 304.619 301.232 317.185C301.232 329.752 293.244 339.94 283.392 339.94Z" fill="#197CCC"/>
<path fill-rule="evenodd" clip-rule="evenodd" d="M286.212 347.816C271.174 347.816 258.983 333.71 258.983 316.31C258.983 298.91 271.174 284.804 286.212 284.804C301.25 284.804 313.441 298.91 313.441 316.31C313.441 333.71 301.25 347.816 286.212 347.816ZM286.212 339.065C276.36 339.065 268.372 328.877 268.372 316.31C268.372 303.744 276.36 293.556 286.212 293.556C296.064 293.556 304.052 303.744 304.052 316.31C304.052 328.877 296.064 339.065 286.212 339.065Z" fill="#34A4FE"/>
<path d="M264.359 311.065C265.902 300.309 273.006 292.235 281.609 290.019L281.608 289.355C273.534 290.668 265.558 299.788 264.004 311.065H264.359Z" stroke="url(#paint26_linear)" stroke-width="5.04451"/>
<path d="M286.408 293.721C283.731 293.721 281.562 291.698 281.562 289.204C281.562 286.709 283.731 284.688 286.408 284.688C289.084 284.688 291.254 286.709 291.254 289.204C291.254 291.698 289.084 293.721 286.408 293.721Z" fill="#3478D8"/>
<path d="M242.967 266.349H267.918V274.101H242.967V266.349Z" fill="#E8EAF0"/>
<path d="M263.678 318.06C261.086 318.06 258.984 317.081 258.984 315.872C258.984 314.664 261.086 313.684 263.678 313.684C266.271 313.684 268.373 314.664 268.373 315.872C268.373 317.081 266.271 318.06 263.678 318.06Z" fill="#3478D8"/>
<g opacity="0.7" filter="url(#filter11_d)">
<path opacity="0.7" d="M531.745 182.183C535.32 183.015 535.32 184.987 535.32 186.606V240.186C535.32 242.685 532.936 243.483 531.745 243.57C501.953 241.526 428.042 236.757 420.578 236.038C416.787 235.673 416.208 233.609 416.406 232.395V158.518C416.406 155.396 419.187 155.482 420.578 155.915C448.882 162.508 528.169 181.35 531.745 182.183Z" fill="white"/>
<path opacity="0.7" d="M531.745 182.183C535.32 183.015 535.32 184.987 535.32 186.606V240.186C535.32 242.685 532.936 243.483 531.745 243.57C501.953 241.526 428.042 236.757 420.578 236.038C416.787 235.673 416.208 233.609 416.406 232.395V158.518C416.406 155.396 419.187 155.482 420.578 155.915C448.882 162.508 528.169 181.35 531.745 182.183Z" fill="#D75E00"/>
</g>
<path opacity="0.9" d="M531.66 182.318C535.004 183.144 535.004 185.101 535.004 186.708V239.883C535.004 242.363 532.775 243.155 531.66 243.24C503.8 241.212 434.681 236.48 427.701 235.766C424.155 235.403 423.614 233.356 423.799 232.15V158.833C423.799 155.734 426.4 155.82 427.701 156.25C454.17 162.792 528.317 181.492 531.66 182.318Z" fill="white"/>
<path d="M443.685 226.38C436.636 224.737 434.295 229.941 431.349 231.717L528.879 238.649C528.186 235.904 526.28 230.413 524.201 230.413C521.602 230.413 518.483 234.289 515.884 233.804C513.285 233.32 514.325 230.413 506.528 229.444C498.731 228.476 493.533 232.836 489.375 232.836C485.216 232.836 491.159 220.735 485.536 218.988C474.963 215.703 458.187 231.382 452.989 230.413C447.791 229.444 450.259 227.911 443.685 226.38Z" fill="#1AB1E1"/>
<path d="M443.688 226.38C438.282 225.992 434.298 229.941 431.353 231.717L532.406 238.649C531.713 235.904 529.807 230.413 527.728 230.413C525.129 230.413 522.01 234.289 519.411 233.805C516.812 233.321 517.852 230.413 510.055 229.444C502.259 228.476 497.061 232.836 492.902 232.836C488.744 232.836 491.343 220.239 485.624 218.786C479.907 217.332 461.714 231.382 456.516 230.413C451.318 229.444 450.445 226.864 443.688 226.38Z" fill="#33CEFF"/>
<path d="M520.245 229.633C529.591 227.2 527.779 237.609 530.031 241.162L442.276 229.633C453.191 229.633 465.271 216.935 472.319 216.935C475.404 216.935 479.7 229.633 485.939 229.633C492.176 229.633 496.853 225.264 501.532 224.788C514.172 223.505 504.651 233.51 508.289 233.51C511.928 233.51 517.2 230.426 520.245 229.633Z" fill="#0C6BBB"/>
<path d="M534.436 241.162C533.995 241.573 533.114 242.393 531.883 243.241L427.923 235.973C430.003 232.42 435.754 223.094 439.278 223.094C441.877 223.094 433.121 232.097 444.037 232.097C454.952 232.097 465.868 219.016 470.027 219.501C474.185 219.985 481.462 232.097 487.7 232.097C493.937 232.097 498.615 226.768 503.294 227.252C507.971 227.737 506.412 235.973 510.051 235.973C513.69 235.973 531.317 240.677 534.436 241.162Z" fill="#0C6BBB"/>
<path d="M524.649 229.633C527.145 230.021 532.183 237.609 534.436 241.162L431.789 233.77C433.867 230.218 437.199 223.094 439.278 223.094C441.877 223.094 435.764 229.633 446.68 229.633C457.595 229.633 468.512 216.552 472.67 217.037C476.829 217.521 484.105 229.633 490.343 229.633C496.58 229.633 501.259 224.304 505.937 224.789C510.615 225.273 509.055 233.51 512.694 233.51C516.333 233.51 521.531 229.149 524.649 229.633Z" fill="#0D82E4"/>
<g opacity="0.9" filter="url(#filter12_dd)">
<path opacity="0.9" d="M406.233 149.947C411.265 151.154 411.079 155.304 411.079 155.304V232.921C411.079 236.539 407.724 237.695 406.047 237.821C364.118 234.86 260.095 227.953 249.591 226.911C244.255 226.381 243.441 223.393 243.719 221.634V114.615C243.719 110.092 247.634 110.218 249.591 110.846C289.426 120.395 401.202 148.741 406.233 149.947Z" fill="white"/>
<path opacity="0.9" d="M406.233 149.947C411.265 151.154 411.079 155.304 411.079 155.304V232.921C411.079 236.539 407.724 237.695 406.047 237.821C364.118 234.86 260.095 227.953 249.591 226.911C244.255 226.381 243.441 223.393 243.719 221.634V114.615C243.719 110.092 247.634 110.218 249.591 110.846C289.426 120.395 401.202 148.741 406.233 149.947Z" fill="#D75E00"/>
<path opacity="0.9" d="M406.233 149.947C411.265 151.154 411.079 155.304 411.079 155.304V232.921C411.079 236.539 407.724 237.695 406.047 237.821C364.118 234.86 260.095 227.953 249.591 226.911C244.255 226.381 243.441 223.393 243.719 221.634V114.615C243.719 110.092 247.634 110.218 249.591 110.846C289.426 120.395 401.202 148.741 406.233 149.947Z" stroke="#FE7359" stroke-opacity="0.3" stroke-width="0.560502"/>
</g>
<path opacity="0.9" d="M406.303 149.903C411.08 151.088 411.08 153.892 411.08 156.195V232.413C411.08 235.966 407.895 237.101 406.303 237.224C366.494 234.318 267.734 227.535 257.76 226.511C252.695 225.992 251.921 223.057 252.187 221.329V116.241C252.187 111.799 255.902 111.922 257.76 112.539C295.581 121.916 401.525 148.718 406.303 149.903Z" fill="white"/>
<path d="M366.591 201.625C369.502 196.199 374.388 191.827 380.625 192.905C391.853 194.842 395.353 207.601 395.699 213.737L270.112 210.72V192.653C270.552 192.241 271.873 191.42 274.518 189.367C282.887 190.188 288.852 186.121 292.261 186.121C296.419 186.121 307.958 191.631 311.523 190.026C349.851 172.78 362.953 208.408 366.591 201.625Z" fill="#F36045"/>
<path d="M366.118 197.519C369.029 192.092 373.199 188.798 380.152 188.798C397.869 188.798 394.88 203.494 395.226 209.631L270.111 206.613V192.652C281.547 192.652 282.887 181.976 295.663 181.976C291.891 181.976 302.491 193.131 310.642 188.798C352.053 166.782 362.48 204.302 366.118 197.519Z" fill="#F36045"/>
<path d="M370.529 197.519C373.439 192.093 378.325 187.722 384.563 188.798C395.79 190.736 399.29 203.494 399.637 209.631L274.522 206.613V189.367C285.957 189.367 292.04 182.015 296.197 182.015C300.356 182.015 307.122 193.474 315.052 188.798C351.02 167.592 366.889 204.302 370.529 197.519Z" fill="#FE7359"/>
<path d="M270.109 200.864L274.515 197.99L275.396 207.845L317.248 204.97L397.867 214.415L405.357 223.038L400.511 227.144L270.109 215.646V200.864Z" fill="#EA711C"/>
<path d="M400.511 221.752V203.768L405.357 200.864L400.511 200.043C394.273 200.043 385.437 207.217 379.199 206.733C372.962 206.248 367.03 184.44 353.21 185.415C344.661 186.019 330.339 200.434 324.101 200.434C317.864 200.434 317.688 189.291 305.909 189.291C296.324 189.291 298.112 202.372 287.195 202.857C278.463 203.244 272.468 203.462 270.562 201.686V210.124L400.511 221.752Z" fill="#EA711C"/>
<path d="M404.924 222.574V201.255C398.686 201.255 389.849 208.039 383.612 207.554C377.374 207.069 365.939 188.174 357.623 186.237C349.306 184.298 334.751 201.255 328.514 201.255C322.276 201.255 319.677 192.05 310.321 190.113C300.965 188.174 302.524 203.194 291.609 203.678C282.875 204.066 276.881 200.61 274.975 198.833V210.945L404.924 222.574Z" fill="#FFA566" stroke="#FFA566" stroke-width="0.560502"/>
<path d="M323.632 146.879L329.753 147.964L331.635 145.579L325.839 137.93L323.957 140.316L323.632 146.879Z" fill="#68A1F1"/>
<path d="M331.64 145.579L331.939 139.056L325.844 137.93L325.52 144.494L331.64 145.579Z" fill="#A4C6F6"/>
<path d="M319.211 142.731L319.394 139.044L271.653 127.994L270.907 124.886L267.947 127.136L267.588 134.396L319.059 145.82L322.025 143.523L319.211 142.731Z" fill="#C0CAE8"/>
<path d="M322.035 143.522L322.355 137.042L270.917 124.886L270.552 132.27L322.035 143.522Z" fill="#E8EAF0"/>
<path d="M323.109 157.544L329.229 158.629L331.111 156.244L325.314 148.596L323.433 150.981L323.109 157.544Z" fill="#3778D5"/>
<path d="M331.112 156.244L331.41 149.721L325.315 148.596L324.991 155.159L331.112 156.244Z" fill="#68A1F1"/>
<path d="M318.69 153.396L318.872 149.709L271.132 138.659L270.385 135.551L267.426 137.801L267.067 145.061L318.537 156.485L321.504 154.188L318.69 153.396Z" fill="#C0CAE8"/>
<path d="M321.508 154.187L321.828 147.707L270.389 135.551L270.024 142.935L321.508 154.187Z" fill="#E8EAF0"/>
<g filter="url(#filter13_d)">
<path d="M84.0074 242.748L188.485 248.152C194.308 248.453 195.417 252.206 195.243 254.045V364.062C195.243 369.956 192.125 372.084 190.565 372.411C158.684 376.668 93.0514 385.378 85.5661 386.164C78.0818 386.95 77.2499 383.708 77.2499 380.761C77.0762 339.996 77.2499 256.807 77.2499 250.115C77.2499 246.187 77.2499 242.748 84.0074 242.748Z" fill="#D75E00"/>
<path d="M84.0074 242.748L188.485 248.152C194.308 248.453 195.417 252.206 195.243 254.045V364.062C195.243 369.956 192.125 372.084 190.565 372.411C158.684 376.668 93.0514 385.378 85.5661 386.164C78.0818 386.95 77.2499 383.708 77.2499 380.761C77.0762 339.996 77.2499 256.807 77.2499 250.115C77.2499 246.187 77.2499 242.748 84.0074 242.748Z" stroke="#FE7359" stroke-opacity="0.3" stroke-width="0.560502"/>
</g>
<path opacity="0.9" d="M93.699 242.748L198.178 248.152C203.999 248.453 205.108 252.206 204.934 254.045V364.062C204.934 369.956 201.816 372.084 200.257 372.411C168.376 376.668 102.743 385.378 95.2586 386.164C87.7734 386.95 86.9415 383.708 86.9415 380.761C86.7687 339.996 86.9415 256.807 86.9415 250.115C86.9415 246.187 86.9415 242.748 93.699 242.748Z" fill="white"/>
<path d="M143.033 346.879C140.123 343.736 136.97 302.021 135.757 281.556C135.757 276.064 139.99 272.702 141.03 274.011C143.456 277.613 149.271 290.495 157.588 292.853C167.984 295.799 160.187 310.043 157.588 315.937C154.989 321.83 158.087 336.958 156.009 348.745C153.929 360.532 146.672 350.808 143.033 346.879Z" fill="#1E2383"/>
<path d="M145.679 342.774C142.767 339.63 139.614 297.915 138.401 277.45C138.401 271.959 141.52 273.685 142.56 274.994C144.986 278.597 151.916 286.389 160.232 288.747C170.628 291.694 162.831 305.937 160.232 311.831C157.633 317.725 158.673 332.951 156.594 344.737C154.515 356.525 149.317 346.702 145.679 342.774Z" fill="#C4C4C4"/>
<path d="M145.679 342.774C142.767 339.63 139.614 297.915 138.401 277.45C138.401 271.959 141.52 273.685 142.56 274.994C144.986 278.597 151.916 286.389 160.232 288.747C170.628 291.694 162.831 305.937 160.232 311.831C157.633 317.725 158.673 332.951 156.594 344.737C154.515 356.525 149.317 346.702 145.679 342.774Z" fill="url(#paint27_linear)"/>
<path d="M120.893 309.807C118.135 324.153 118.84 337.669 122.188 347.918C125.544 358.191 131.505 365.053 139.158 366.367C146.812 367.681 154.946 363.238 161.912 354.737C168.861 346.256 174.551 333.838 177.31 319.491C180.069 305.145 179.363 291.629 176.016 281.38C172.659 271.107 166.701 264.245 159.047 262.931C151.392 261.616 143.258 266.06 136.292 274.561C129.344 283.041 123.651 295.46 120.893 309.807Z" stroke="#E1E3F9" stroke-width="0.560502"/>
<path d="M156.909 283.521C160.236 285.879 158.988 288.433 157.948 289.415C156.562 293.344 154.414 302.676 156.909 308.57C160.027 315.937 166.141 309.736 166.141 323.287C166.141 332.008 153.791 332.145 149.112 336.074C144.434 340.004 139.506 357.685 137.946 360.631C136.698 362.989 133.518 362.296 133.518 360.631V331.163C133.518 325.269 130.4 323.796 127.281 318.884C124.162 313.973 121.461 295.195 131.338 293.722C141.214 292.248 144.434 292.853 144.953 290.888C145.473 288.924 152.75 280.574 156.909 283.521Z" fill="#06ACD5"/>
<path d="M158.675 280.237C162.002 282.594 160.754 285.148 159.714 286.13C158.328 290.059 156.18 299.391 158.675 305.285C161.793 312.652 166.992 315.599 165.953 321.984C164.912 328.369 155.557 328.86 150.878 332.789C146.2 336.718 140.482 354.4 138.923 357.347C137.675 359.704 135.284 359.011 135.284 357.347V327.878C135.284 321.984 132.166 320.511 129.047 315.599C125.928 310.687 122.289 294.971 132.166 293.497C142.042 292.024 146.2 289.568 146.719 287.604C147.24 285.639 154.516 277.29 158.675 280.237Z" fill="#C4C4C4"/>
<path d="M158.675 280.237C162.002 282.594 160.754 285.148 159.714 286.13C158.328 290.059 156.18 299.391 158.675 305.285C161.793 312.652 166.992 315.599 165.953 321.984C164.912 328.369 155.557 328.86 150.878 332.789C146.2 336.718 140.482 354.4 138.923 357.347C137.675 359.704 135.284 359.011 135.284 357.347V327.878C135.284 321.984 132.166 320.511 129.047 315.599C125.928 310.687 122.289 294.971 132.166 293.497C142.042 292.024 146.2 289.568 146.719 287.604C147.24 285.639 154.516 277.29 158.675 280.237Z" fill="url(#paint28_linear)"/>
<path d="M139.756 308.731C140.588 300.873 146.34 295.306 149.113 293.505C150.671 292.032 151.676 291.258 152.924 291.258C154.172 291.258 153.27 293.997 153.27 295.47V310.204C153.27 313.643 158.556 311.044 159.532 315.895C160.854 322.465 155.35 319.536 154.83 322.484C154.31 325.43 155.206 332.336 154.686 337.248C154.166 342.159 151.191 345.567 149.113 345.567C147.449 345.567 146.686 342.948 146.514 341.637C146.514 339.674 145.473 335.056 141.316 332.306C137.157 329.556 130.224 338.249 126.932 342.997C125.861 344.113 122.187 345.076 120.524 343.111C118.86 341.147 119.831 339.346 120.524 338.691C126.587 331.978 138.924 316.589 139.756 308.731Z" fill="#ED955B"/>
<path d="M142.402 306.268C143.233 298.408 148.986 292.842 151.758 291.041C153.317 289.568 153.629 288.586 154.877 288.586C156.124 288.586 155.916 291.533 155.916 293.006V307.74C155.916 311.179 160.075 310.687 160.594 315.599C161.114 320.511 157.995 317.072 157.476 320.019C156.956 322.967 156.436 329.842 155.916 334.753C155.396 339.666 153.837 343.103 151.758 343.103C150.095 343.103 149.332 340.484 149.159 339.174C149.159 337.209 148.119 332.593 143.961 329.842C139.803 327.092 132.179 335.9 128.887 340.648C127.915 342.049 124.833 342.612 123.169 340.648C121.506 338.683 122.476 336.882 123.169 336.227C129.233 329.515 141.57 314.126 142.402 306.268Z" fill="url(#paint29_linear)"/>
<path d="M163.868 261.903C162.72 261.903 161.789 260.584 161.789 258.956C161.789 257.328 162.72 256.009 163.868 256.009C165.017 256.009 165.947 257.328 165.947 258.956C165.947 260.584 165.017 261.903 163.868 261.903Z" fill="#7476C8"/>
<path d="M138.926 267.796C137.778 267.796 136.847 266.477 136.847 264.849C136.847 263.223 137.778 261.903 138.926 261.903C140.074 261.903 141.006 263.223 141.006 264.849C141.006 266.477 140.074 267.796 138.926 267.796Z" fill="#7476C8"/>
<path d="M179.47 285.478C178.322 285.478 177.391 284.159 177.391 282.531C177.391 280.903 178.322 279.584 179.47 279.584C180.618 279.584 181.549 280.903 181.549 282.531C181.549 284.159 180.618 285.478 179.47 285.478Z" fill="#7476C8"/>
<path d="M120.206 302.177C119.058 302.177 118.127 300.858 118.127 299.23C118.127 297.602 119.058 296.284 120.206 296.284C121.355 296.284 122.285 297.602 122.285 299.23C122.285 300.858 121.355 302.177 120.206 302.177Z" fill="#7476C8"/>
<path d="M117.09 346.38C115.942 346.38 115.011 345.061 115.011 343.433C115.011 341.806 115.942 340.487 117.09 340.487C118.238 340.487 119.17 341.806 119.17 343.433C119.17 345.061 118.238 346.38 117.09 346.38Z" fill="#7476C8"/>
<path d="M177.388 329.681C176.24 329.681 175.309 328.362 175.309 326.735C175.309 325.107 176.24 323.788 177.388 323.788C178.536 323.788 179.467 325.107 179.467 326.735C179.467 328.362 178.536 329.681 177.388 329.681Z" fill="#7476C8"/>
<path d="M157.638 365.044C156.49 365.044 155.559 363.725 155.559 362.097C155.559 360.469 156.49 359.15 157.638 359.15C158.786 359.15 159.717 360.469 159.717 362.097C159.717 363.725 158.786 365.044 157.638 365.044Z" fill="#7476C8"/>
<path d="M133.727 371.92C132.579 371.92 131.648 370.6 131.648 368.974C131.648 367.346 132.579 366.027 133.727 366.027C134.875 366.027 135.807 367.346 135.807 368.974C135.807 370.6 134.875 371.92 133.727 371.92Z" fill="#7476C8"/>
<path d="M172.703 183.164C162.081 183.164 153.47 170.799 153.47 155.548C153.47 140.296 162.081 127.932 172.703 127.932C183.325 127.932 191.936 140.296 191.936 155.548C191.936 170.799 183.325 183.164 172.703 183.164Z" fill="#EAECED"/>
<g filter="url(#filter14_d)">
<path d="M223.758 104.408C230.301 105.954 230.846 110.526 230.301 112.62V218.401C230.301 223.038 225.939 224.519 223.758 224.68C172.14 223.392 67.1575 220.816 60.1784 220.816C53.1983 220.816 52.1805 216.308 52.5438 214.054V70.5968C52.5438 64.8006 57.6329 64.9616 60.1784 65.7667L223.758 104.408Z" fill="#D75E00"/>
<path d="M223.758 104.408C230.301 105.954 230.846 110.526 230.301 112.62V218.401C230.301 223.038 225.939 224.519 223.758 224.68C172.14 223.392 67.1575 220.816 60.1784 220.816C53.1983 220.816 52.1804 216.308 52.5438 214.054V70.5968C52.5438 64.8006 57.6329 64.9616 60.1784 65.7667L223.758 104.408Z" stroke="#FE7359" stroke-opacity="0.3" stroke-width="0.560502"/>
</g>
<path opacity="0.9" d="M226.27 104.34C232.508 105.89 233.028 110.477 232.508 112.576V218.679C232.508 223.33 228.35 224.816 226.27 224.977C177.063 223.686 76.9861 221.101 70.3328 221.101C63.6794 221.101 62.7085 216.579 63.055 214.319V70.4256C63.055 64.6116 67.9065 64.7731 70.3328 65.5806L226.27 104.34Z" fill="white"/>
<path d="M146.753 112.637C141.763 114.574 139.893 118.085 137.294 119.861L140.932 125.19L132.096 136.818C133.828 138.594 138.021 143.02 140.932 146.507C137.605 149.996 136.773 156.036 136.773 158.62C136.427 158.62 135.111 158.524 132.615 158.136C131.784 160.461 132.268 167.826 132.615 171.217L132.607 171.225C132.443 171.379 132.436 171.385 129.572 171.767C130.404 183.006 139.244 194.036 143.229 199.689C145.006 195.813 145.09 197.885 146.753 195.172C148.416 197.497 158.173 203.678 161.291 205.131V196.404H167.019V202.563C170.761 201.788 172.466 200.932 174.199 199.317C174.545 199.64 175.551 201.158 176.798 204.647C182.619 199.221 184.937 197.761 186.843 190.655C186.323 190.332 187.505 175.384 184.595 174.608C185.011 169.57 184.768 162.819 184.595 160.073C185.461 159.75 183.59 155.295 188.165 154.52C188.165 145.218 193.501 136.075 191.248 133.168C187.724 133.579 181.556 134.4 178.473 134.81C177.641 132.097 175.065 136.172 173.159 133.911C173.332 132.942 167.093 116.992 168.34 114.279C165.256 116.333 163.934 117.564 162.763 118.892V125.675H152.367L146.753 112.637Z" fill="#D85CCB"/>
<path d="M156.623 107.181C151.633 109.119 145.187 113.156 142.588 114.933L146.226 120.263L137.391 131.89C139.123 133.667 143.315 138.091 146.226 141.58C142.9 145.068 142.069 151.108 142.069 153.692C141.722 153.692 140.406 153.595 137.91 153.207C137.079 155.534 137.564 162.897 137.91 166.288C137.737 166.45 136.663 166.87 133.752 167.258C134.583 178.498 142.762 192.613 146.747 198.265C147.094 197.619 148.202 195.649 149.865 192.936C151.528 195.261 158.183 198.749 161.301 200.203V193.42H169.618V200.203C173.361 199.428 177.762 196.004 179.494 194.389C179.84 194.712 180.844 196.231 182.092 199.719C187.913 194.292 193.182 178.724 195.088 171.618C194.568 171.295 192.8 170.455 189.889 169.681C190.305 164.641 190.063 157.891 189.889 155.146C190.756 154.823 193.633 153.983 198.207 153.207C198.207 143.905 193.702 135.766 191.449 132.859C190.064 134.474 186.875 137.994 185.212 139.157C184.38 136.444 180.36 131.244 178.454 128.984C178.626 128.014 179.286 125.398 180.533 122.685C179.286 121.134 171.697 116.225 168.059 113.964V120.747H157.663L156.623 107.181Z" fill="#E883DE"/>
<path opacity="0.3" d="M121.225 157.674C121.225 173.924 125.86 188.615 133.328 199.23C140.798 209.849 151.066 216.345 162.34 216.345C173.613 216.345 183.88 209.849 191.351 199.23C198.819 188.615 203.453 173.924 203.453 157.674C203.453 141.425 198.819 126.734 191.351 116.119C183.88 105.5 173.613 99.0048 162.34 99.0048C151.066 99.0048 140.798 105.5 133.328 116.119C125.86 126.734 121.225 141.425 121.225 157.674Z" stroke="#7773B4" stroke-width="0.560502"/>
<path d="M166.145 180.389C157.872 180.389 151.166 171.013 151.166 159.448C151.166 147.881 157.872 138.506 166.145 138.506C174.417 138.506 181.123 147.881 181.123 159.448C181.123 171.013 174.417 180.389 166.145 180.389Z" fill="#F27235"/>
<path d="M168.306 176.233C161.129 176.233 155.311 167.774 155.311 157.339C155.311 146.903 161.129 138.444 168.306 138.444C175.482 138.444 181.301 146.903 181.301 157.339C181.301 167.774 175.482 176.233 168.306 176.233Z" fill="url(#paint30_linear)"/>
<g filter="url(#filter15_d)">
<path d="M54.6814 62.0734C52.0054 62.0734 49.8355 60.0512 49.8355 57.5566C49.8355 55.062 52.0054 53.0397 54.6814 53.0397C57.3574 53.0397 59.5273 55.062 59.5273 57.5566C59.5273 60.0512 57.3574 62.0734 54.6814 62.0734Z" fill="white"/>
</g>
<g filter="url(#filter16_d)">
<path d="M225.405 99.2126C222.972 99.2126 220.999 97.3739 220.999 95.1063C220.999 92.8388 222.972 91 225.405 91C227.839 91 229.811 92.8388 229.811 95.1063C229.811 97.3739 227.839 99.2126 225.405 99.2126Z" fill="white"/>
</g>
<path d="M507.098 271.265L503.674 269.771L501.902 271.127L501.724 276.938L506.92 277.076L508.795 275.247L507.098 271.265Z" fill="#D0D8F0"/>
<path d="M503.712 269.531L508.908 269.67L508.73 275.481L503.535 275.342L503.712 269.531Z" fill="#E8EAF0"/>
<path d="M477.144 269.646L458.805 266.933L456.006 269.084L455.805 275.651L476.943 276.213L479.754 273.653L477.144 269.646Z" fill="#D0D8F0"/>
<path d="M458.724 266.691L479.861 267.253L479.66 273.821L458.523 273.258L458.724 266.691Z" fill="#E8EAF0"/>
<path d="M485.099 334.784C473.421 334.784 463.953 324.856 463.953 312.611C464.394 312.199 466.156 310.968 467.478 310.146C471.375 310.146 482.927 312.611 485.099 312.611V290.437L488.624 287.973L506.246 312.611C506.246 324.856 496.779 334.784 485.099 334.784Z" fill="#E95577"/>
<path d="M467.473 310.146C467.473 322.392 476.94 332.32 488.619 332.32C500.298 332.32 509.766 322.392 509.766 310.146C509.766 297.9 500.298 287.973 488.619 287.973C488.619 294.953 488.619 303.166 488.619 310.146C483.92 310.146 471.389 310.146 467.473 310.146Z" fill="#FF7494"/>
<path d="M459.543 307.683H480.689L483.332 305.219V283.045C464.654 283.045 458.809 300.292 459.543 307.683Z" fill="#9769E4"/>
<path d="M483.332 305.219V283.045C464.654 283.045 461.452 297.827 462.186 305.219H483.332Z" fill="#B991FD"/>
<defs>
<filter id="filter0_d" x="173.094" y="0.477689" width="351.082" height="372.816" filterUnits="userSpaceOnUse" color-interpolation-filters="sRGB">
<feFlood flood-opacity="0" result="BackgroundImageFix"/>
<feColorMatrix in="SourceAlpha" type="matrix" values="0 0 0 0 0 0 0 0 0 0 0 0 0 0 0 0 0 0 127 0"/>
<feOffset dy="2.24201"/>
<feGaussianBlur stdDeviation="2.24201"/>
<feColorMatrix type="matrix" values="0 0 0 0 1 0 0 0 0 1 0 0 0 0 1 0 0 0 1 0"/>
<feBlend mode="normal" in2="BackgroundImageFix" result="effect1_dropShadow"/>
<feBlend mode="normal" in="SourceGraphic" in2="effect1_dropShadow" result="shape"/>
</filter>
<filter id="filter1_d" x="178.244" y="15.9544" width="381.099" height="426.043" filterUnits="userSpaceOnUse" color-interpolation-filters="sRGB">
<feFlood flood-opacity="0" result="BackgroundImageFix"/>
<feColorMatrix in="SourceAlpha" type="matrix" values="0 0 0 0 0 0 0 0 0 0 0 0 0 0 0 0 0 0 127 0"/>
<feOffset dy="2.24201"/>
<feGaussianBlur stdDeviation="9.80878"/>
<feColorMatrix type="matrix" values="0 0 0 0 1 0 0 0 0 1 0 0 0 0 1 0 0 0 0.66 0"/>
<feBlend mode="normal" in2="BackgroundImageFix" result="effect1_dropShadow"/>
<feBlend mode="normal" in="SourceGraphic" in2="effect1_dropShadow" result="shape"/>
</filter>
<filter id="filter2_d" x="44.7399" y="215.895" width="157.883" height="181.384" filterUnits="userSpaceOnUse" color-interpolation-filters="sRGB">
<feFlood flood-opacity="0" result="BackgroundImageFix"/>
<feColorMatrix in="SourceAlpha" type="matrix" values="0 0 0 0 0 0 0 0 0 0 0 0 0 0 0 0 0 0 127 0"/>
<feOffset dy="2.24201"/>
<feGaussianBlur stdDeviation="9.80878"/>
<feColorMatrix type="matrix" values="0 0 0 0 1 0 0 0 0 1 0 0 0 0 1 0 0 0 0.66 0"/>
<feBlend mode="normal" in2="BackgroundImageFix" result="effect1_dropShadow"/>
<feBlend mode="normal" in="SourceGraphic" in2="effect1_dropShadow" result="shape"/>
</filter>
<filter id="filter3_d" x="49.9749" y="40.2144" width="178.074" height="168.214" filterUnits="userSpaceOnUse" color-interpolation-filters="sRGB">
<feFlood flood-opacity="0" result="BackgroundImageFix"/>
<feColorMatrix in="SourceAlpha" type="matrix" values="0 0 0 0 0 0 0 0 0 0 0 0 0 0 0 0 0 0 127 0"/>
<feOffset dy="2.24201"/>
<feGaussianBlur stdDeviation="1.96176"/>
<feColorMatrix type="matrix" values="0 0 0 0 1 0 0 0 0 1 0 0 0 0 1 0 0 0 0.82 0"/>
<feBlend mode="normal" in2="BackgroundImageFix" result="effect1_dropShadow"/>
<feBlend mode="normal" in="SourceGraphic" in2="effect1_dropShadow" result="shape"/>
</filter>
<filter id="filter4_dd" x="422.906" y="239.054" width="110.283" height="126.026" filterUnits="userSpaceOnUse" color-interpolation-filters="sRGB">
<feFlood flood-opacity="0" result="BackgroundImageFix"/>
<feColorMatrix in="SourceAlpha" type="matrix" values="0 0 0 0 0 0 0 0 0 0 0 0 0 0 0 0 0 0 127 0"/>
<feOffset dy="2.24201"/>
<feGaussianBlur stdDeviation="9.80878"/>
<feColorMatrix type="matrix" values="0 0 0 0 1 0 0 0 0 1 0 0 0 0 1 0 0 0 0.66 0"/>
<feBlend mode="normal" in2="BackgroundImageFix" result="effect1_dropShadow"/>
<feColorMatrix in="SourceAlpha" type="matrix" values="0 0 0 0 0 0 0 0 0 0 0 0 0 0 0 0 0 0 127 0"/>
<feOffset dy="2.24201"/>
<feGaussianBlur stdDeviation="9.80878"/>
<feColorMatrix type="matrix" values="0 0 0 0 0.945098 0 0 0 0 0.407843 0 0 0 0 0.2 0 0 0 1 0"/>
<feBlend mode="normal" in2="effect1_dropShadow" result="effect2_dropShadow"/>
<feBlend mode="normal" in="SourceGraphic" in2="effect2_dropShadow" result="shape"/>
</filter>
<filter id="filter5_d" x="18.3824" y="165.624" width="98.3628" height="80.178" filterUnits="userSpaceOnUse" color-interpolation-filters="sRGB">
<feFlood flood-opacity="0" result="BackgroundImageFix"/>
<feColorMatrix in="SourceAlpha" type="matrix" values="0 0 0 0 0 0 0 0 0 0 0 0 0 0 0 0 0 0 127 0"/>
<feOffset dy="2.24201"/>
<feGaussianBlur stdDeviation="9.80878"/>
<feColorMatrix type="matrix" values="0 0 0 0 1 0 0 0 0 1 0 0 0 0 1 0 0 0 0.66 0"/>
<feBlend mode="normal" in2="BackgroundImageFix" result="effect1_dropShadow"/>
<feBlend mode="normal" in="SourceGraphic" in2="effect1_dropShadow" result="shape"/>
</filter>
<filter id="filter6_d" x="25.3824" y="136.624" width="76.6604" height="65.3977" filterUnits="userSpaceOnUse" color-interpolation-filters="sRGB">
<feFlood flood-opacity="0" result="BackgroundImageFix"/>
<feColorMatrix in="SourceAlpha" type="matrix" values="0 0 0 0 0 0 0 0 0 0 0 0 0 0 0 0 0 0 127 0"/>
<feOffset dy="2.24201"/>
<feGaussianBlur stdDeviation="9.80878"/>
<feColorMatrix type="matrix" values="0 0 0 0 1 0 0 0 0 1 0 0 0 0 1 0 0 0 0.66 0"/>
<feBlend mode="normal" in2="BackgroundImageFix" result="effect1_dropShadow"/>
<feBlend mode="normal" in="SourceGraphic" in2="effect1_dropShadow" result="shape"/>
</filter>
<filter id="filter7_dd" x="327.543" y="235.768" width="119.975" height="139.988" filterUnits="userSpaceOnUse" color-interpolation-filters="sRGB">
<feFlood flood-opacity="0" result="BackgroundImageFix"/>
<feColorMatrix in="SourceAlpha" type="matrix" values="0 0 0 0 0 0 0 0 0 0 0 0 0 0 0 0 0 0 127 0"/>
<feOffset dy="2.24201"/>
<feGaussianBlur stdDeviation="9.80878"/>
<feColorMatrix type="matrix" values="0 0 0 0 1 0 0 0 0 1 0 0 0 0 1 0 0 0 0.66 0"/>
<feBlend mode="normal" in2="BackgroundImageFix" result="effect1_dropShadow"/>
<feColorMatrix in="SourceAlpha" type="matrix" values="0 0 0 0 0 0 0 0 0 0 0 0 0 0 0 0 0 0 127 0"/>
<feOffset dy="2.24201"/>
<feGaussianBlur stdDeviation="9.80878"/>
<feColorMatrix type="matrix" values="0 0 0 0 0.945098 0 0 0 0 0.407843 0 0 0 0 0.2 0 0 0 1 0"/>
<feBlend mode="normal" in2="effect1_dropShadow" result="effect2_dropShadow"/>
<feBlend mode="normal" in="SourceGraphic" in2="effect2_dropShadow" result="shape"/>
</filter>
<filter id="filter8_d" x="336.476" y="236.376" width="110.967" height="139.04" filterUnits="userSpaceOnUse" color-interpolation-filters="sRGB">
<feFlood flood-opacity="0" result="BackgroundImageFix"/>
<feColorMatrix in="SourceAlpha" type="matrix" values="0 0 0 0 0 0 0 0 0 0 0 0 0 0 0 0 0 0 127 0"/>
<feOffset dy="2.24201"/>
<feGaussianBlur stdDeviation="9.80878"/>
<feColorMatrix type="matrix" values="0 0 0 0 1 0 0 0 0 1 0 0 0 0 1 0 0 0 0.66 0"/>
<feBlend mode="normal" in2="BackgroundImageFix" result="effect1_dropShadow"/>
<feBlend mode="normal" in="SourceGraphic" in2="effect1_dropShadow" result="shape"/>
</filter>
<filter id="filter9_d" x="202.63" y="230.84" width="147.289" height="160.519" filterUnits="userSpaceOnUse" color-interpolation-filters="sRGB">
<feFlood flood-opacity="0" result="BackgroundImageFix"/>
<feColorMatrix in="SourceAlpha" type="matrix" values="0 0 0 0 0 0 0 0 0 0 0 0 0 0 0 0 0 0 127 0"/>
<feOffset dy="2.24201"/>
<feGaussianBlur stdDeviation="9.80878"/>
<feColorMatrix type="matrix" values="0 0 0 0 0.945098 0 0 0 0 0.407843 0 0 0 0 0.2 0 0 0 1 0"/>
<feBlend mode="normal" in2="BackgroundImageFix" result="effect1_dropShadow"/>
<feBlend mode="normal" in="SourceGraphic" in2="effect1_dropShadow" result="shape"/>
</filter>
<filter id="filter10_d" x="210.806" y="231.531" width="139.036" height="159.389" filterUnits="userSpaceOnUse" color-interpolation-filters="sRGB">
<feFlood flood-opacity="0" result="BackgroundImageFix"/>
<feColorMatrix in="SourceAlpha" type="matrix" values="0 0 0 0 0 0 0 0 0 0 0 0 0 0 0 0 0 0 127 0"/>
<feOffset dy="2.24201"/>
<feGaussianBlur stdDeviation="9.80878"/>
<feColorMatrix type="matrix" values="0 0 0 0 1 0 0 0 0 1 0 0 0 0 1 0 0 0 0.66 0"/>
<feBlend mode="normal" in2="BackgroundImageFix" result="effect1_dropShadow"/>
<feBlend mode="normal" in="SourceGraphic" in2="effect1_dropShadow" result="shape"/>
</filter>
<filter id="filter11_d" x="396.755" y="138.32" width="158.183" height="127.109" filterUnits="userSpaceOnUse" color-interpolation-filters="sRGB">
<feFlood flood-opacity="0" result="BackgroundImageFix"/>
<feColorMatrix in="SourceAlpha" type="matrix" values="0 0 0 0 0 0 0 0 0 0 0 0 0 0 0 0 0 0 127 0"/>
<feOffset dy="2.24201"/>
<feGaussianBlur stdDeviation="9.80878"/>
<feColorMatrix type="matrix" values="0 0 0 0 0.945098 0 0 0 0 0.407843 0 0 0 0 0.2 0 0 0 1 0"/>
<feBlend mode="normal" in2="BackgroundImageFix" result="effect1_dropShadow"/>
<feBlend mode="normal" in="SourceGraphic" in2="effect1_dropShadow" result="shape"/>
</filter>
<filter id="filter12_dd" x="223.773" y="92.8714" width="207.204" height="167.09" filterUnits="userSpaceOnUse" color-interpolation-filters="sRGB">
<feFlood flood-opacity="0" result="BackgroundImageFix"/>
<feColorMatrix in="SourceAlpha" type="matrix" values="0 0 0 0 0 0 0 0 0 0 0 0 0 0 0 0 0 0 127 0"/>
<feOffset dy="2.24201"/>
<feGaussianBlur stdDeviation="9.80878"/>
<feColorMatrix type="matrix" values="0 0 0 0 1 0 0 0 0 1 0 0 0 0 1 0 0 0 0.66 0"/>
<feBlend mode="normal" in2="BackgroundImageFix" result="effect1_dropShadow"/>
<feColorMatrix in="SourceAlpha" type="matrix" values="0 0 0 0 0 0 0 0 0 0 0 0 0 0 0 0 0 0 127 0"/>
<feOffset dy="2.24201"/>
<feGaussianBlur stdDeviation="9.80878"/>
<feColorMatrix type="matrix" values="0 0 0 0 0.945098 0 0 0 0 0.407843 0 0 0 0 0.2 0 0 0 1 0"/>
<feBlend mode="normal" in2="effect1_dropShadow" result="effect2_dropShadow"/>
<feBlend mode="normal" in="SourceGraphic" in2="effect2_dropShadow" result="shape"/>
</filter>
<filter id="filter13_d" x="57.275" y="225.093" width="157.883" height="183.33" filterUnits="userSpaceOnUse" color-interpolation-filters="sRGB">
<feFlood flood-opacity="0" result="BackgroundImageFix"/>
<feColorMatrix in="SourceAlpha" type="matrix" values="0 0 0 0 0 0 0 0 0 0 0 0 0 0 0 0 0 0 127 0"/>
<feOffset dy="2.24201"/>
<feGaussianBlur stdDeviation="9.80878"/>
<feColorMatrix type="matrix" values="0 0 0 0 0.945098 0 0 0 0 0.407843 0 0 0 0 0.2 0 0 0 1 0"/>
<feBlend mode="normal" in2="BackgroundImageFix" result="effect1_dropShadow"/>
<feBlend mode="normal" in="SourceGraphic" in2="effect1_dropShadow" result="shape"/>
</filter>
<filter id="filter14_d" x="32.5817" y="47.7025" width="217.776" height="199.118" filterUnits="userSpaceOnUse" color-interpolation-filters="sRGB">
<feFlood flood-opacity="0" result="BackgroundImageFix"/>
<feColorMatrix in="SourceAlpha" type="matrix" values="0 0 0 0 0 0 0 0 0 0 0 0 0 0 0 0 0 0 127 0"/>
<feOffset dy="2.24201"/>
<feGaussianBlur stdDeviation="9.80878"/>
<feColorMatrix type="matrix" values="0 0 0 0 0.945098 0 0 0 0 0.407843 0 0 0 0 0.2 0 0 0 1 0"/>
<feBlend mode="normal" in2="BackgroundImageFix" result="effect1_dropShadow"/>
<feBlend mode="normal" in="SourceGraphic" in2="effect1_dropShadow" result="shape"/>
</filter>
<filter id="filter15_d" x="45.3519" y="48.5557" width="18.6598" height="18.0018" filterUnits="userSpaceOnUse" color-interpolation-filters="sRGB">
<feFlood flood-opacity="0" result="BackgroundImageFix"/>
<feColorMatrix in="SourceAlpha" type="matrix" values="0 0 0 0 0 0 0 0 0 0 0 0 0 0 0 0 0 0 127 0"/>
<feOffset/>
<feGaussianBlur stdDeviation="2.24201"/>
<feColorMatrix type="matrix" values="0 0 0 0 1 0 0 0 0 1 0 0 0 0 1 0 0 0 0.64 0"/>
<feBlend mode="normal" in2="BackgroundImageFix" result="effect1_dropShadow"/>
<feBlend mode="normal" in="SourceGraphic" in2="effect1_dropShadow" result="shape"/>
</filter>
<filter id="filter16_d" x="216.516" y="86.516" width="17.7791" height="17.1806" filterUnits="userSpaceOnUse" color-interpolation-filters="sRGB">
<feFlood flood-opacity="0" result="BackgroundImageFix"/>
<feColorMatrix in="SourceAlpha" type="matrix" values="0 0 0 0 0 0 0 0 0 0 0 0 0 0 0 0 0 0 127 0"/>
<feOffset/>
<feGaussianBlur stdDeviation="2.24201"/>
<feColorMatrix type="matrix" values="0 0 0 0 1 0 0 0 0 1 0 0 0 0 1 0 0 0 0.64 0"/>
<feBlend mode="normal" in2="BackgroundImageFix" result="effect1_dropShadow"/>
<feBlend mode="normal" in="SourceGraphic" in2="effect1_dropShadow" result="shape"/>
</filter>
<linearGradient id="paint0_linear" x1="77.374" y1="299.416" x2="75.7169" y2="285.28" gradientUnits="userSpaceOnUse">
<stop stop-color="#D6E5FC"/>
<stop offset="0.3334" stop-color="#DDE6F7"/>
<stop offset="0.8072" stop-color="#EFEAEB"/>
<stop offset="1" stop-color="#F9ECE4"/>
</linearGradient>
<linearGradient id="paint1_linear" x1="75.172" y1="291.244" x2="80.6522" y2="323.872" gradientUnits="userSpaceOnUse">
<stop stop-color="#1F4659"/>
<stop offset="0.3334" stop-color="#1D4152"/>
<stop offset="0.8072" stop-color="#163240"/>
<stop offset="1" stop-color="#132A36"/>
</linearGradient>
<linearGradient id="paint2_linear" x1="87.6582" y1="387.07" x2="69.8052" y2="367.956" gradientUnits="userSpaceOnUse">
<stop stop-color="#1F4659"/>
<stop offset="0.3334" stop-color="#1D4152"/>
<stop offset="0.8072" stop-color="#163240"/>
<stop offset="1" stop-color="#132A36"/>
</linearGradient>
<linearGradient id="paint3_linear" x1="70.3769" y1="372.125" x2="83.7687" y2="362.766" gradientUnits="userSpaceOnUse">
<stop stop-color="#D6E5FC"/>
<stop offset="0.3334" stop-color="#DDE6F7"/>
<stop offset="0.8072" stop-color="#EFEAEB"/>
<stop offset="1" stop-color="#F9ECE4"/>
</linearGradient>
<linearGradient id="paint4_linear" x1="24.6892" y1="381.29" x2="50.0971" y2="364.26" gradientUnits="userSpaceOnUse">
<stop stop-color="#D6E5FC"/>
<stop offset="0.3334" stop-color="#DDE6F7"/>
<stop offset="0.8072" stop-color="#EFEAEB"/>
<stop offset="1" stop-color="#F9ECE4"/>
</linearGradient>
<linearGradient id="paint5_linear" x1="43.6944" y1="430.294" x2="22.5667" y2="432.377" gradientUnits="userSpaceOnUse">
<stop stop-color="#1F4659"/>
<stop offset="0.3334" stop-color="#1D4152"/>
<stop offset="0.8072" stop-color="#163240"/>
<stop offset="1" stop-color="#132A36"/>
</linearGradient>
<linearGradient id="paint6_linear" x1="37.8122" y1="430.583" x2="15.701" y2="430.583" gradientUnits="userSpaceOnUse">
<stop stop-color="#D6E5FC"/>
<stop offset="0.3334" stop-color="#DDE6F7"/>
<stop offset="0.8072" stop-color="#EFEAEB"/>
<stop offset="1" stop-color="#F9ECE4"/>
</linearGradient>
<linearGradient id="paint7_linear" x1="47.4072" y1="427.181" x2="72.7401" y2="434.846" gradientUnits="userSpaceOnUse">
<stop stop-color="#1F4659"/>
<stop offset="0.3334" stop-color="#1D4152"/>
<stop offset="0.8072" stop-color="#163240"/>
<stop offset="1" stop-color="#132A36"/>
</linearGradient>
<linearGradient id="paint8_linear" x1="79.4638" y1="431.895" x2="60.056" y2="431.895" gradientUnits="userSpaceOnUse">
<stop stop-color="#D6E5FC"/>
<stop offset="0.3334" stop-color="#DDE6F7"/>
<stop offset="0.8072" stop-color="#EFEAEB"/>
<stop offset="1" stop-color="#F9ECE4"/>
</linearGradient>
<linearGradient id="paint9_linear" x1="20.8616" y1="462.386" x2="3.95972" y2="462.386" gradientUnits="userSpaceOnUse">
<stop stop-color="#D6E5FC"/>
<stop offset="0.3334" stop-color="#DDE6F7"/>
<stop offset="0.8072" stop-color="#EFEAEB"/>
<stop offset="1" stop-color="#F9ECE4"/>
</linearGradient>
<linearGradient id="paint10_linear" x1="79.4599" y1="462.738" x2="55.1699" y2="462.738" gradientUnits="userSpaceOnUse">
<stop stop-color="#D6E5FC"/>
<stop offset="0.3334" stop-color="#DDE6F7"/>
<stop offset="0.8072" stop-color="#EFEAEB"/>
<stop offset="1" stop-color="#F9ECE4"/>
</linearGradient>
<linearGradient id="paint11_linear" x1="67.3339" y1="346.449" x2="73.3859" y2="343.411" gradientUnits="userSpaceOnUse">
<stop stop-color="#D6E5FC"/>
<stop offset="0.3334" stop-color="#DDE6F7"/>
<stop offset="0.8072" stop-color="#EFEAEB"/>
<stop offset="1" stop-color="#F9ECE4"/>
</linearGradient>
<linearGradient id="paint12_linear" x1="51.8596" y1="340.742" x2="63.2468" y2="323.515" gradientUnits="userSpaceOnUse">
<stop stop-color="#D6E5FC"/>
<stop offset="0.3334" stop-color="#DDE6F7"/>
<stop offset="0.8072" stop-color="#EFEAEB"/>
<stop offset="1" stop-color="#F9ECE4"/>
</linearGradient>
<linearGradient id="paint13_linear" x1="29.7321" y1="311.773" x2="50.3248" y2="277.495" gradientUnits="userSpaceOnUse">
<stop stop-color="#D6E5FC"/>
<stop offset="0.3334" stop-color="#DDE6F7"/>
<stop offset="0.8072" stop-color="#EFEAEB"/>
<stop offset="1" stop-color="#F9ECE4"/>
</linearGradient>
<linearGradient id="paint14_linear" x1="1.59486" y1="318.979" x2="18.8227" y2="292.466" gradientUnits="userSpaceOnUse">
<stop stop-color="#D6E5FC"/>
<stop offset="0.3334" stop-color="#DDE6F7"/>
<stop offset="0.8072" stop-color="#EFEAEB"/>
<stop offset="1" stop-color="#F9ECE4"/>
</linearGradient>
<linearGradient id="paint15_linear" x1="19.0866" y1="346.444" x2="21.0466" y2="327.72" gradientUnits="userSpaceOnUse">
<stop stop-color="#D6E5FC"/>
<stop offset="0.3334" stop-color="#DDE6F7"/>
<stop offset="0.8072" stop-color="#EFEAEB"/>
<stop offset="1" stop-color="#F9ECE4"/>
</linearGradient>
<linearGradient id="paint16_linear" x1="65.7511" y1="334.191" x2="42.6452" y2="347.96" gradientUnits="userSpaceOnUse">
<stop stop-color="#F0F1F5"/>
<stop offset="0.5382" stop-color="#F4EFEE"/>
<stop offset="1" stop-color="#F9ECE4"/>
</linearGradient>
<linearGradient id="paint17_linear" x1="34.1821" y1="269.608" x2="45.3659" y2="238.561" gradientUnits="userSpaceOnUse">
<stop stop-color="#D6E5FC"/>
<stop offset="0.3334" stop-color="#DDE6F7"/>
<stop offset="0.8072" stop-color="#EFEAEB"/>
<stop offset="1" stop-color="#F9ECE4"/>
</linearGradient>
<radialGradient id="paint18_radial" cx="0" cy="0" r="1" gradientUnits="userSpaceOnUse" gradientTransform="translate(44.5516 254.41) rotate(180) scale(22.9038 21.3935)">
<stop stop-color="#1F4659"/>
<stop offset="0.3334" stop-color="#1D4152"/>
<stop offset="0.8072" stop-color="#163240"/>
<stop offset="1" stop-color="#132A36"/>
</radialGradient>
<linearGradient id="paint19_linear" x1="28.707" y1="234.528" x2="36.2311" y2="250.355" gradientUnits="userSpaceOnUse">
<stop stop-color="#FAAF40"/>
<stop offset="1" stop-color="#F16633"/>
</linearGradient>
<linearGradient id="paint20_linear" x1="12.4047" y1="263.568" x2="21.3291" y2="253.175" gradientUnits="userSpaceOnUse">
<stop stop-color="#D6E5FC"/>
<stop offset="0.3334" stop-color="#DDE6F7"/>
<stop offset="0.8072" stop-color="#EFEAEB"/>
<stop offset="1" stop-color="#F9ECE4"/>
</linearGradient>
<linearGradient id="paint21_linear" x1="51.3787" y1="290.244" x2="61.841" y2="301.111" gradientUnits="userSpaceOnUse">
<stop stop-color="#FAAF40"/>
<stop offset="1" stop-color="#F16633"/>
</linearGradient>
<linearGradient id="paint22_linear" x1="54.7313" y1="303.117" x2="59.9883" y2="293.548" gradientUnits="userSpaceOnUse">
<stop stop-color="#D6E5FC"/>
<stop offset="0.3334" stop-color="#DDE6F7"/>
<stop offset="0.8072" stop-color="#EFEAEB"/>
<stop offset="1" stop-color="#F9ECE4"/>
</linearGradient>
<linearGradient id="paint23_linear" x1="54.7281" y1="303.118" x2="59.985" y2="293.549" gradientUnits="userSpaceOnUse">
<stop stop-color="#D6E5FC"/>
<stop offset="0.3334" stop-color="#DDE6F7"/>
<stop offset="0.8072" stop-color="#EFEAEB"/>
<stop offset="1" stop-color="#F9ECE4"/>
</linearGradient>
<linearGradient id="paint24_linear" x1="134.284" y1="282.487" x2="127.995" y2="275.15" gradientUnits="userSpaceOnUse">
<stop stop-color="#D6E5FC"/>
<stop offset="0.33339" stop-color="#DDE6F7"/>
<stop offset="0.80716" stop-color="#EFEAEB"/>
<stop offset="1" stop-color="#F9ECE4"/>
</linearGradient>
<linearGradient id="paint25_linear" x1="105.001" y1="302.038" x2="101.183" y2="297.941" gradientUnits="userSpaceOnUse">
<stop stop-color="#F0F1F5"/>
<stop offset="0.5382" stop-color="#F4EFEE"/>
<stop offset="1" stop-color="#F9ECE4"/>
</linearGradient>
<linearGradient id="paint26_linear" x1="259.479" y1="280.299" x2="320.012" y2="338.816" gradientUnits="userSpaceOnUse">
<stop stop-color="#FAAF40"/>
<stop offset="1" stop-color="#F16633"/>
</linearGradient>
<linearGradient id="paint27_linear" x1="151.944" y1="273.797" x2="151.944" y2="350.352" gradientUnits="userSpaceOnUse">
<stop stop-color="#6060DA"/>
<stop offset="1" stop-color="#1E2383"/>
</linearGradient>
<linearGradient id="paint28_linear" x1="145.909" y1="279.613" x2="145.909" y2="358.648" gradientUnits="userSpaceOnUse">
<stop stop-color="#139AEF"/>
<stop offset="1" stop-color="#13CCF9"/>
</linearGradient>
<linearGradient id="paint29_linear" x1="141.452" y1="288.586" x2="141.452" y2="343.103" gradientUnits="userSpaceOnUse">
<stop stop-color="#F2CC85"/>
<stop offset="1" stop-color="#F8A571"/>
</linearGradient>
<linearGradient id="paint30_linear" x1="155.311" y1="135.751" x2="191.139" y2="163.048" gradientUnits="userSpaceOnUse">
<stop stop-color="#FAAF40"/>
<stop offset="1" stop-color="#F16633"/>
</linearGradient>
</defs>
</svg>
