<svg width="289" height="454" viewBox="0 0 289 454" fill="none" xmlns="http://www.w3.org/2000/svg">
<path d="M271.101 249.801C270.292 250.34 268.676 249.532 267.328 247.915C265.981 246.298 265.711 244.412 266.52 243.873C267.328 243.334 268.945 244.142 270.292 245.759C271.64 247.376 272.179 249.262 271.101 249.801Z" fill="url(#paint0_linear)"/>
<path d="M278.098 253.037C281.075 253.037 283.488 250.624 283.488 247.647C283.488 244.671 281.075 242.258 278.098 242.258C275.122 242.258 272.709 244.671 272.709 247.647C272.709 250.624 275.122 253.037 278.098 253.037Z" fill="url(#paint1_linear)"/>
<path d="M272.707 252.502C271.629 253.31 269.742 252.502 268.395 250.885C267.048 249.268 266.778 247.112 267.856 246.304C268.934 245.495 270.82 246.304 272.168 247.92C273.515 249.537 273.785 251.693 272.707 252.502Z" fill="url(#paint2_linear)"/>
<path d="M277.284 251.419C276.206 252.228 274.05 251.15 272.433 248.994C270.816 246.838 270.278 244.413 271.355 243.604C272.433 242.796 274.589 243.874 276.206 246.03C277.823 248.185 278.362 250.611 277.284 251.419Z" fill="url(#paint3_linear)"/>
<g filter="url(#filter0_f)">
<path d="M199.956 156.301C199.956 156.571 200.226 156.84 200.226 157.109C200.764 158.187 201.303 158.996 201.842 160.074C203.19 162.499 204.537 165.463 205.884 168.428C205.884 168.697 206.154 168.697 206.154 168.967C206.962 170.583 207.771 172.47 208.31 174.087C208.579 174.626 208.579 174.895 208.849 175.434C237.413 243.342 193.219 277.297 188.907 277.027C184.596 276.758 191.872 260.05 184.596 225.557C179.476 201.304 181.362 185.944 182.709 178.937C182.709 178.398 182.979 177.59 183.248 177.32C183.787 175.703 184.057 174.626 184.057 174.626C184.057 174.626 184.057 173.817 183.787 172.739C183.787 171.931 183.518 171.122 183.518 170.044C183.518 170.044 183.518 170.044 183.518 169.775C183.518 169.236 183.518 168.697 183.248 168.158C183.248 168.158 183.248 167.889 183.248 167.619C183.248 167.35 183.248 167.08 183.248 166.811C181.362 150.642 179.206 117.766 199.956 156.301Z" fill="#DD4A7A"/>
</g>
<g filter="url(#filter1_f)">
<path d="M202.255 114.977C202.255 115.418 202.704 115.858 202.704 116.299C203.6 118.061 204.497 119.382 205.394 121.144C207.635 125.108 209.877 129.954 212.119 134.799C212.119 135.239 212.567 135.239 212.567 135.68C213.912 138.323 215.257 141.406 216.154 144.049C216.602 144.93 216.602 145.37 217.051 146.251C264.575 257.252 191.047 312.752 183.873 312.312C176.7 311.871 188.805 284.562 176.7 228.18C168.182 188.537 171.32 163.43 173.562 151.978C173.562 151.097 174.01 149.775 174.458 149.335C175.355 146.692 175.803 144.93 175.803 144.93C175.803 144.93 175.803 143.608 175.355 141.846C175.355 140.525 174.907 139.204 174.907 137.442C174.907 137.442 174.907 137.442 174.907 137.001C174.907 136.12 174.907 135.239 174.458 134.358C174.458 134.358 174.458 133.918 174.458 133.477C174.458 133.037 174.458 132.596 174.458 132.156C171.32 105.727 167.733 51.9887 202.255 114.977Z" fill="#DD4A7A" fill-opacity="0.2"/>
</g>
<g filter="url(#filter2_f)">
<path d="M186.479 181.624C186.479 181.624 184.054 192.673 188.096 209.65C192.138 226.627 192.677 256.539 194.833 257.078C196.989 257.617 223.398 230.939 204.265 176.774C204.265 176.504 189.982 161.144 186.479 181.624Z" fill="#FDF96E"/>
</g>
<path d="M234.177 130.153C234.177 130.692 229.057 154.945 229.057 154.945H163.035L160.34 147.4L157.915 131.5L164.113 101.588L193.217 96.1987L229.596 102.666L234.177 130.153Z" fill="#213A4A"/>
<path d="M208.037 121.8V112.908H198.875L200.222 114.255L189.443 131.771L206.42 120.184L208.037 121.8Z" fill="url(#paint4_linear)"/>
<path d="M183.785 124.497V130.695V137.702H190.791H196.989L193.755 134.468H187.019V127.731L183.785 124.497Z" fill="#BFCCE1"/>
<path d="M198.883 137.431H199.692C203.465 137.431 206.698 134.197 206.698 130.424V121.801L202.926 124.226V127.999C202.926 130.963 200.5 133.388 197.536 133.388H195.38L198.883 137.431Z" fill="#F7EAE2"/>
<path d="M198.606 114.252H190.791C187.019 114.252 183.785 117.216 183.785 120.989V122.337L187.558 125.84V123.145C187.558 120.181 189.983 117.755 192.947 117.755H196.45L198.606 114.252Z" fill="#F7EAE2"/>
<path d="M234.18 134.468C234.18 134.468 239.839 116.952 238.761 114.796C237.414 112.641 230.946 99.7056 229.868 96.7413C228.791 93.7771 197.262 70.3325 159.804 96.7413L152.259 112.371L157.379 134.468C157.379 134.468 166.002 135.816 165.194 109.407C165.194 109.407 191.064 90.8128 223.94 109.407C223.94 109.407 219.359 133.39 234.18 134.468Z" fill="url(#paint5_linear)"/>
<path d="M234.18 134.468C234.18 134.468 239.839 116.952 238.761 114.796C237.414 112.641 230.946 99.7056 229.868 96.7413C228.791 93.7771 197.262 70.3325 159.804 96.7413L152.259 112.371L157.379 134.468C157.379 134.468 166.002 135.816 165.194 109.407C165.194 109.407 191.064 90.8128 223.94 109.407C223.94 109.407 219.359 133.39 234.18 134.468Z" fill="url(#paint6_linear)"/>
<path d="M232.295 148.215L230.678 146.598C230.678 146.598 191.334 159.533 160.075 147.406L158.458 149.562C158.458 149.562 170.046 219.088 195.376 219.088C218.821 219.088 232.295 148.215 232.295 148.215Z" fill="url(#paint7_linear)"/>
<path d="M232.295 148.215L230.678 146.598C230.678 146.598 191.334 159.533 160.075 147.406L158.458 149.562C158.458 149.562 170.046 219.088 195.376 219.088C218.821 219.088 232.295 148.215 232.295 148.215Z" fill="url(#paint8_linear)"/>
<path d="M213.959 87.5729C213.959 87.5729 199.677 81.3749 184.317 85.6866C184.317 85.6866 177.041 87.3035 173.538 89.7288C173.538 89.7288 188.359 91.0761 192.94 91.6151C197.791 91.8846 211.803 87.3034 213.959 87.5729Z" fill="#BFCCE1"/>
<path d="M221.23 1.88059C222.308 0.263725 222.847 4.57539 222.847 5.11434V5.38382C224.464 11.5818 225.811 18.0493 227.158 24.2473C228.775 31.2537 230.392 37.9906 231.739 44.9971V45.2665L231.47 45.536H231.201L230.931 45.2665C229.045 38.5296 227.697 31.5232 226.08 24.5167C224.733 18.8577 223.386 12.9292 222.308 7.27015C222.038 7.27015 221.769 7.00068 221.499 6.73121C221.499 5.65329 220.421 2.95851 221.23 1.88059Z" fill="#AF90B5"/>
<path d="M159.808 45.8113C161.425 38.2659 163.85 30.99 165.737 23.4446C167.623 16.7076 169.24 10.2402 171.396 3.7727C171.396 2.96426 171.665 1.88635 171.935 1.07792C171.935 0.808438 172.204 0.538952 172.473 0.269474C172.473 0.269474 172.743 0 173.012 0C173.282 0 173.282 0 173.551 0C173.551 0 173.821 0.26947 173.821 0.538948C173.821 0.808426 173.821 0.808438 173.821 1.07792C173.551 2.42531 173.282 3.5032 172.743 4.85059V5.12009C172.743 5.12009 172.743 5.38956 172.473 5.38956H172.204H171.935C170.318 11.5876 168.701 17.7855 167.084 23.9835C165.198 31.2594 163.581 39.0743 161.155 46.3502C161.155 46.3502 161.155 46.6197 160.886 46.6197H160.616C160.347 46.6197 160.347 46.6197 160.347 46.3502C159.808 46.0807 159.808 45.8113 159.808 45.8113Z" fill="#AF90B5"/>
<path d="M234.18 46.3437C234.18 45.5353 216.125 25.3244 194.297 26.1329C172.47 26.9413 157.918 46.8827 157.109 48.2301C156.301 49.5775 155.762 62.5124 155.762 62.5124C155.762 62.5124 160.343 82.9927 196.723 85.957C196.992 85.957 197.261 85.957 197.8 85.957C197.8 85.957 229.868 83.5317 236.066 59.5481L234.18 46.3437Z" fill="url(#paint9_linear)"/>
<path d="M234.18 46.3437C234.18 45.5353 216.125 25.3244 194.297 26.1329C172.47 26.9413 157.918 46.8827 157.109 48.2301C156.301 49.5775 155.762 62.5124 155.762 62.5124C155.762 62.5124 160.343 82.9927 196.723 85.957C196.992 85.957 197.261 85.957 197.8 85.957C197.8 85.957 229.868 83.5317 236.066 59.5481L234.18 46.3437Z" fill="url(#paint10_linear)"/>
<path d="M157.113 48.2377C162.772 43.3871 174.36 36.6502 193.762 35.8417C220.171 34.7638 231.489 45.004 234.454 48.2377L235.262 53.6273C235.262 53.6273 231.759 61.7116 222.597 63.059C213.165 64.4064 203.733 58.4779 194.84 59.0169C185.948 59.5558 181.097 63.059 167.893 63.059C162.233 63.059 158.461 61.1726 156.305 59.2863C156.305 55.7831 156.844 49.5851 157.113 48.2377Z" fill="url(#paint11_radial)"/>
<path d="M185.395 27.485C191.862 25.5987 198.869 25.5987 205.336 27.485C205.067 30.4493 203.719 35.8388 198.599 38.8031C192.132 42.3063 186.742 36.1083 185.395 27.485Z" fill="url(#paint12_linear)"/>
<path d="M197.795 69.2562C197.795 69.2562 194.561 68.1783 193.214 69.2562L192.944 77.071H197.795C198.064 77.3405 197.795 69.2562 197.795 69.2562Z" fill="#AF90B5"/>
<path d="M202.645 70.8652C202.645 70.8652 199.95 70.0568 199.95 70.3263C199.95 70.5958 199.95 76.2548 200.22 76.2548C200.489 76.2548 202.915 75.7159 202.915 75.7159L202.645 70.8652Z" fill="#AF90B5"/>
<path d="M207.498 72.7606C207.498 72.7606 205.342 71.6827 205.073 71.9522C204.803 72.2217 204.803 74.108 204.803 74.108C204.803 74.108 208.307 73.8385 207.498 72.7606Z" fill="#AF90B5"/>
<path d="M190.241 76.254C190.241 75.9846 190.51 70.3255 190.241 70.3255C189.971 70.0561 187.815 70.8645 187.546 71.134C187.276 71.4035 187.007 75.9846 187.007 75.9846L190.241 76.254Z" fill="#AF90B5"/>
<path d="M185.388 71.9479L185.118 74.3732C185.118 74.3732 182.154 74.1038 182.154 73.2953C182.423 72.4869 185.388 71.9479 185.388 71.9479Z" fill="#AF90B5"/>
<path d="M199.943 59.5513C196.978 51.467 193.206 43.6521 188.355 36.3762C189.972 36.1067 191.858 36.1068 193.745 36.1068C196.709 36.1068 199.673 36.1068 202.637 36.1068C205.871 41.7658 208.835 47.4248 211.53 53.3533C213.147 56.5871 214.494 59.8208 215.303 63.0546C210.452 62.2461 205.063 60.3598 199.943 59.5513Z" fill="#38647F"/>
<path d="M184.593 60.9025C182.437 53.0876 179.473 45.5422 175.431 38.5358C177.856 37.7274 180.281 37.1884 182.706 36.9189C185.401 44.4643 188.096 52.0097 190.791 59.5551C188.635 59.8246 186.749 60.3635 184.593 60.9025Z" fill="#38647F"/>
<path d="M237.953 58.743C237.953 58.743 239.301 55.7787 238.762 53.6229C238.223 51.4671 234.45 39.8795 234.181 39.61C233.642 39.3406 230.408 37.4542 230.139 38.2626C229.869 38.8016 234.989 63.8631 234.989 63.8631L237.953 58.743Z" fill="url(#paint13_linear)"/>
<path d="M156.031 62.2496C156.031 62.2496 162.499 41.2303 162.499 40.1524C162.499 39.0745 158.996 40.4218 157.918 41.2303C156.84 42.0387 152.259 55.5126 152.259 56.86C152.259 57.9379 156.031 62.2496 156.031 62.2496Z" fill="url(#paint14_linear)"/>
<path d="M232.818 62.2487C232.818 62.2487 198.056 95.9334 157.634 62.2487C157.634 62.2487 161.946 82.729 194.553 84.3458C226.081 85.6932 232.818 62.2487 232.818 62.2487Z" fill="#BFCCE1"/>
<path d="M208.84 62.7812C208.84 62.7812 201.025 59.278 194.827 59.8169C188.629 60.0864 181.892 62.7812 181.892 62.7812C181.892 62.7812 197.252 60.0864 208.84 62.7812Z" fill="white"/>
<path d="M230.389 40.6835C230.389 40.1446 230.119 39.8751 230.389 39.3361C230.928 39.0667 231.466 39.0667 231.736 39.3361C232.275 39.3361 232.544 39.6056 233.083 40.1446C233.353 40.4141 233.622 40.6835 233.622 41.2225C234.431 43.1088 235.239 44.9952 235.239 46.8815C233.892 46.0731 232.814 44.9952 232.275 43.3783C232.005 43.1088 232.005 42.5699 231.736 42.5699C231.466 42.5699 231.197 42.8393 231.197 42.5699C230.658 42.5699 230.658 41.2225 230.389 40.6835Z" fill="white"/>
<path d="M159.8 40.4205C160.339 40.151 160.878 39.8815 161.147 39.8815H161.417C161.417 39.8815 161.686 39.8815 161.686 40.151V40.4205C161.147 42.0374 160.878 43.9237 160.069 45.5406C160.069 45.8101 159.8 45.8101 159.8 45.8101C159.8 45.8101 159.8 45.8101 159.531 45.8101C159.261 45.5406 158.992 45.2711 158.722 44.7321C158.183 43.9237 157.105 42.8458 157.375 42.0374C157.914 41.4984 159.261 40.9595 159.8 40.4205Z" fill="white"/>
<path d="M208.304 207.494C208.304 207.494 202.106 219.351 192.674 217.734C183.242 216.117 166.804 191.595 162.223 162.222C162.493 162.491 177.045 229.322 208.304 207.494Z" fill="#BFCCE1"/>
<path d="M181.611 181.901V181.631H181.88C188.078 181.901 194.546 182.17 200.744 181.631C202.361 181.631 203.978 181.362 205.594 181.092C207.481 180.823 210.176 180.823 210.984 178.667C211.253 177.32 211.253 175.703 211.253 174.355C211.253 172.738 211.523 171.391 211.523 169.774C204.516 170.044 197.241 169.505 190.234 168.427C190.234 168.427 189.965 168.427 189.965 168.157V167.888C189.695 162.768 189.695 157.648 189.695 152.797C189.695 152.258 190.234 152.258 190.504 152.797C190.773 155.761 190.773 158.456 190.773 161.42C190.773 162.768 190.773 164.385 191.043 165.732C191.043 166.54 190.773 167.079 191.582 167.618C191.851 167.888 194.276 167.888 194.546 168.157C200.474 168.966 206.403 169.235 212.331 168.966H212.601V169.235C212.331 171.122 212.331 173.008 212.062 174.894C212.062 176.242 212.062 178.128 211.523 179.475C210.714 181.631 206.672 181.631 204.786 181.631C197.241 182.44 189.695 182.17 181.88 181.901C181.88 184.326 182.419 186.751 182.958 189.177C183.228 190.254 183.767 191.602 184.036 192.68C184.575 194.297 184.845 195.375 186.731 195.644C189.156 196.183 192.121 196.452 194.815 196.452C197.51 196.722 200.205 196.722 202.9 196.722H203.169V196.991C203.169 198.878 202.9 200.764 202.63 202.65C202.361 203.728 202.63 205.884 201.552 206.693C200.474 207.501 198.588 206.962 197.241 206.962C195.354 206.962 193.468 206.693 191.312 206.423C191.043 210.465 191.851 214.777 193.737 218.28C193.468 218.28 192.929 218.28 192.659 218.28C191.043 214.507 190.234 210.196 190.504 205.884V205.615C190.504 205.615 190.504 205.615 190.773 205.345C190.773 205.345 190.773 205.345 191.043 205.345H191.312C192.929 205.615 194.546 205.884 196.432 205.884C197.78 205.884 199.666 206.423 200.744 205.615C201.822 204.806 201.822 202.65 202.091 201.303C202.361 199.956 202.361 198.878 202.361 197.53C199.396 197.53 196.163 197.53 193.198 197.261C191.582 197.261 189.965 196.991 188.348 196.722C187.539 196.722 185.384 196.722 184.845 196.183C184.036 195.644 183.767 194.297 183.497 193.488C182.958 192.141 182.419 190.793 182.15 189.446C182.15 187.56 181.88 184.865 181.611 181.901Z" fill="#D4BAB8" fill-opacity="0.5"/>
<path d="M227.971 157.642C228.51 155.756 229.319 153.869 229.049 151.983C229.049 151.713 229.049 151.444 228.78 151.174C228.51 151.174 228.51 150.905 228.241 150.905C227.971 150.905 227.971 150.905 227.702 150.905C220.426 151.444 213.689 154.408 206.413 154.408C203.449 154.408 200.485 154.139 198.059 155.756C200.754 156.564 203.718 156.295 206.413 156.025C212.072 155.486 217.462 155.217 223.121 154.947C223.66 154.947 223.929 154.947 224.199 155.217C224.738 155.486 225.007 156.564 225.007 157.372C225.007 160.337 224.468 163.57 225.007 166.535C226.354 164.109 226.893 160.337 227.971 157.642Z" fill="white"/>
<path d="M220.71 99.4366C216.937 97.8198 213.165 97.0113 209.123 95.9334C207.506 95.6639 205.889 95.3945 204.811 96.4724C204.541 96.7418 204.541 96.7418 204.541 97.0113C204.541 97.2808 204.541 97.5503 204.541 97.5503C204.811 97.8198 205.08 98.0892 205.35 98.0892C211.278 100.515 217.476 101.862 223.135 104.826C224.483 105.365 227.986 106.443 227.717 103.479C227.447 102.131 222.327 100.245 220.71 99.4366Z" fill="white"/>
<path d="M196.993 96.7399C198.071 96.4704 199.149 96.7399 199.957 97.2788C200.227 97.5483 200.496 97.5483 200.496 98.0873C200.496 98.3567 200.227 98.6262 199.688 98.8957C198.61 99.1652 197.532 99.1652 196.454 99.1652C195.107 99.1652 193.759 99.1652 192.412 98.8957C191.873 98.8957 191.334 98.8957 191.334 98.3567C192.681 97.5483 194.029 97.0094 195.646 96.7399H196.993Z" fill="white"/>
<path d="M170.303 46.6181L168.686 47.9655C168.956 48.235 173.537 54.7024 180.543 54.1635C187.55 53.3551 189.975 48.7739 189.975 48.5045L188.089 47.4265C188.089 47.696 185.933 51.1992 180.274 51.7382C174.345 52.5466 170.303 46.6181 170.303 46.6181Z" fill="#8CF8FF"/>
<path d="M222.039 46.6181L223.656 47.9655C223.387 48.235 218.806 54.7024 211.799 54.1635C204.793 53.3551 202.367 48.7739 202.367 48.5045L204.254 47.4265C204.254 47.696 206.41 51.1992 212.069 51.7382C217.728 52.5466 222.039 46.6181 222.039 46.6181Z" fill="#8CF8FF"/>
<path d="M218.013 196.718C218.013 196.718 223.672 199.952 223.942 201.299C224.211 202.646 225.289 209.922 225.02 211C224.75 211.809 212.624 226.63 210.737 227.438C208.851 228.247 205.348 227.708 204 226.899C202.653 226.091 218.013 196.718 218.013 196.718Z" fill="url(#paint15_linear)"/>
<path d="M218.013 196.718C218.013 196.718 223.672 199.952 223.942 201.299C224.211 202.646 225.289 209.922 225.02 211C224.75 211.809 212.624 226.63 210.737 227.438C208.851 228.247 205.348 227.708 204 226.899C202.653 226.091 218.013 196.718 218.013 196.718Z" fill="url(#paint16_linear)"/>
<path d="M218.266 196.718C218.266 196.718 209.912 222.049 212.068 222.049C214.224 222.049 211.259 229.055 203.444 226.36C195.63 223.666 218.266 196.718 218.266 196.718Z" fill="#BFCCE1"/>
<path d="M222.859 212.348L229.865 216.929L218.278 234.445L213.158 226.361L222.859 212.348Z" fill="#13222B"/>
<path d="M250.33 300.467C250.33 300.467 239.551 299.928 229.849 301.545C229.849 301.545 227.963 310.169 231.197 313.941L249.521 312.324C249.521 312.055 252.485 307.743 250.33 300.467Z" fill="#213A4A"/>
<path d="M246.559 294.8L247.367 317.167L235.78 320.131L233.893 297.225L246.559 294.8Z" fill="#13222B"/>
<path d="M237.138 212.887L233.096 213.695C233.096 213.695 210.729 240.643 210.46 241.991C210.46 243.338 223.395 290.766 225.281 292.922C227.167 295.078 234.713 301.006 234.713 301.006C234.713 301.006 246.57 298.042 248.187 294.808C249.534 291.305 253.307 275.406 252.498 267.052C251.69 258.159 247.648 224.744 237.138 212.887Z" fill="url(#paint17_linear)"/>
<path d="M233.358 212.89L237.669 212.082C248.448 224.478 252.491 258.971 253.299 267.594C253.838 272.714 252.76 280.529 251.413 286.727C248.987 278.912 233.358 276.487 230.663 272.175C228.507 268.672 220.692 241.185 217.728 231.484C224.734 223.13 233.358 212.89 233.358 212.89Z" fill="url(#paint18_linear)"/>
<path d="M233.358 212.89L237.669 212.082C248.448 224.478 252.491 258.971 253.299 267.594C253.838 272.714 252.76 280.529 251.413 286.727C248.987 278.912 233.358 276.487 230.663 272.175C228.507 268.672 220.692 241.185 217.728 231.484C224.734 223.13 233.358 212.89 233.358 212.89Z" fill="url(#paint19_linear)"/>
<path d="M237.408 217.471C238.755 217.741 239.833 219.358 240.372 220.435C244.414 228.25 246.57 236.604 247.378 245.227C246.3 242.263 245.222 239.299 243.875 236.604C242.528 233.64 240.911 230.945 238.216 229.328C235.521 227.442 232.557 226.903 229.323 227.711C229.323 224.208 233.096 216.393 237.408 217.471Z" fill="white"/>
<path d="M170.036 367.297C170.036 367.297 202.374 357.326 222.315 342.235C242.256 327.145 243.604 321.755 243.873 320.677C244.143 319.599 243.604 312.323 242.526 310.707C241.448 309.09 231.747 301.275 230.938 301.544C229.86 301.814 216.386 310.168 195.098 331.726C173.809 353.015 165.455 363.255 166.264 364.063C166.533 364.872 170.036 367.297 170.036 367.297Z" fill="url(#paint20_linear)"/>
<path d="M191.06 342.504C191.599 342.234 194.563 346.276 194.563 346.276L213.427 332.803C213.427 332.803 212.349 330.108 211.271 327.683C210.462 325.527 230.404 310.436 236.602 305.585C239.566 307.741 242.8 310.436 243.339 311.514C244.417 313.131 244.417 319.868 244.147 320.946C243.878 322.023 242.261 327.144 222.319 342.504C202.378 357.864 170.58 368.913 170.58 368.913C170.58 368.913 169.232 368.104 168.424 367.296C174.352 359.481 190.521 342.773 191.06 342.504Z" fill="url(#paint21_linear)"/>
<path d="M190.779 341.965C191.318 341.695 194.282 345.737 194.282 345.737L213.146 332.263C213.146 332.263 212.068 329.569 210.99 327.143C210.181 324.988 230.123 309.897 236.321 305.046C239.285 307.202 242.519 309.897 243.058 310.975C244.136 312.592 244.136 319.328 243.866 320.406C243.597 321.484 241.98 326.604 222.038 341.965C202.097 357.325 170.299 368.373 170.299 368.373C170.299 368.373 168.951 367.565 168.143 366.757C174.071 358.942 190.24 342.234 190.779 341.965Z" fill="url(#paint22_linear)"/>
<path d="M188.363 360.56C188.363 360.56 178.123 365.141 172.733 369.183L192.675 393.975L195.639 391.55C195.639 391.55 190.519 376.189 192.675 366.219C192.675 366.219 192.675 360.29 188.363 360.56Z" fill="url(#paint23_linear)"/>
<path d="M193.217 382.114C193.756 385.348 194.564 388.312 195.642 391.546L192.678 393.971L183.785 382.922C186.749 382.653 190.522 382.383 193.217 382.114Z" fill="#213A4A"/>
<path d="M176.775 374.027L172.732 369.177C175.427 367.021 179.739 364.865 182.973 363.248C181.086 366.213 178.392 371.063 176.775 374.027Z" fill="#213A4A"/>
<path d="M175.952 420.655C175.952 420.655 185.115 423.35 189.965 426.045L171.371 453.532L168.946 451.915C168.946 451.915 174.066 436.285 172.18 426.853C171.91 426.853 171.91 420.925 175.952 420.655Z" fill="url(#paint24_linear)"/>
<path d="M171.109 442.486C170.57 445.719 169.762 448.953 168.684 451.917L171.109 453.534L179.463 441.138C176.768 441.677 173.535 442.216 171.109 442.486Z" fill="#213A4A"/>
<path d="M186.214 431.435L189.986 426.045C187.561 424.698 183.788 423.081 180.824 422.273C182.172 424.698 184.597 429.01 186.214 431.435Z" fill="#213A4A"/>
<path d="M171.379 211.816L165.181 217.205L178.924 232.296L182.697 223.673L171.379 211.816Z" fill="#13222B"/>
<path d="M172.999 196.718C172.999 196.718 168.148 200.76 167.879 202.107C167.879 203.455 167.879 210.731 168.418 211.539C168.957 212.347 182.7 224.743 184.586 225.282C186.473 225.821 189.707 224.743 191.054 223.935C192.132 222.588 172.999 196.718 172.999 196.718Z" fill="url(#paint25_linear)"/>
<path d="M172.999 196.718C172.999 196.718 168.148 200.76 167.879 202.107C167.879 203.455 167.879 210.731 168.418 211.539C168.957 212.347 182.7 224.743 184.586 225.282C186.473 225.821 189.707 224.743 191.054 223.935C192.132 222.588 172.999 196.718 172.999 196.718Z" fill="url(#paint26_linear)"/>
<path d="M158.462 300.471C158.462 300.471 168.702 298.315 178.403 298.315C178.403 298.315 181.367 306.399 178.942 310.172L161.156 311.25C160.887 311.519 157.384 307.747 158.462 300.471Z" fill="#213A4A"/>
<path d="M161.156 294.534L163.85 316.092L175.438 317.17L173.821 294.804L161.156 294.534Z" fill="#13222B"/>
<path d="M172.992 196.718C172.992 196.718 184.041 220.432 182.154 220.701C179.998 220.971 184.041 227.438 191.047 223.666C198.053 219.893 172.992 196.718 172.992 196.718Z" fill="#BFCCE1"/>
<path d="M157.917 214.505H161.959C161.959 214.505 187.559 236.872 187.829 238.219C188.098 239.297 182.978 286.725 181.361 289.15C179.744 291.576 173.546 298.313 173.546 298.313C173.546 298.313 161.689 297.235 159.803 294.271C157.917 291.306 151.988 276.485 151.719 268.131C150.91 260.047 149.563 227.44 157.917 214.505Z" fill="url(#paint27_linear)"/>
<path d="M161.424 213.966H157.382C149.029 227.44 150.106 261.125 150.645 269.478C150.915 274.329 153.071 281.874 155.227 287.533C156.304 279.719 171.126 275.137 173.012 270.556C174.629 266.784 178.132 239.297 179.21 229.596C171.395 222.589 161.424 213.966 161.424 213.966Z" fill="url(#paint28_linear)"/>
<path d="M161.424 213.966H157.382C149.029 227.44 150.106 261.125 150.645 269.478C150.915 274.329 153.071 281.874 155.227 287.533C156.304 279.719 171.126 275.137 173.012 270.556C174.629 266.784 178.132 239.297 179.21 229.596C171.395 222.589 161.424 213.966 161.424 213.966Z" fill="url(#paint29_linear)"/>
<path d="M173.81 422.809C173.81 422.809 153.869 385.89 150.904 356.248C147.94 326.605 152.252 321.216 153.33 320.138C154.408 319.06 162.492 313.67 165.187 313.401C167.881 313.131 185.398 315.557 185.936 316.635C186.745 317.712 190.518 336.576 188.092 372.417C185.667 408.257 182.703 423.617 181.086 423.887C179.739 423.887 173.81 422.809 173.81 422.809Z" fill="url(#paint30_linear)"/>
<path d="M182.151 384.813C181.882 384.004 174.606 384.543 174.606 384.543L170.833 356.787C170.833 356.787 174.876 355.709 178.648 354.631C181.882 353.823 178.918 323.911 177.84 314.748C172.72 313.94 165.983 313.131 164.635 313.401C161.941 313.67 154.126 319.06 153.317 320.138C152.239 321.216 148.197 326.605 150.892 356.517C153.856 386.429 172.989 423.617 172.989 423.617C172.989 423.617 175.145 424.156 177.031 424.426C179.996 413.108 182.151 385.621 182.151 384.813Z" fill="url(#paint31_linear)"/>
<path d="M182.151 384.813C181.882 384.004 174.606 384.543 174.606 384.543L170.833 356.787C170.833 356.787 174.876 355.709 178.648 354.631C181.882 353.823 178.918 323.911 177.84 314.748C172.72 313.94 165.983 313.131 164.635 313.401C161.941 313.67 154.126 319.06 153.317 320.138C152.239 321.216 148.197 326.605 150.892 356.517C153.856 386.429 172.989 423.617 172.989 423.617C172.989 423.617 175.145 424.156 177.031 424.426C179.996 413.108 182.151 385.621 182.151 384.813Z" fill="url(#paint32_linear)"/>
<path d="M168.958 258.154C168.689 252.495 169.497 246.835 170.575 241.176C171.114 238.482 170.845 229.589 173.27 227.972C176.504 230.667 173 238.751 172.461 242.254C171.384 247.105 168.689 253.303 168.958 258.154Z" fill="white"/>
<path d="M143.381 142.551C144.189 143.36 144.728 144.168 144.998 144.977C145.267 145.785 145.537 146.863 145.267 147.941C144.998 149.827 143.92 151.714 142.572 153.061C141.495 154.139 139.878 154.947 138.261 154.678C134.488 154.139 132.332 148.48 133.141 145.246C133.68 141.204 140.147 139.587 143.381 142.551Z" fill="#13222B"/>
<path d="M69.7909 152.528C69.252 152.258 64.1319 145.521 63.8624 144.713C63.5929 143.904 64.6708 139.862 64.6708 139.862C64.6708 139.862 126.112 134.742 129.346 135.281C132.31 135.82 134.735 139.054 134.735 139.054C134.735 139.054 140.933 157.109 138.777 159.265C136.621 161.151 107.248 172.739 69.7909 152.528Z" fill="#213A4A"/>
<path d="M109.142 150.644C107.795 150.374 98.363 142.559 96.7461 141.481C95.3987 140.673 71.9542 142.829 62.7919 143.637C62.7919 143.907 62.7919 144.176 62.7919 144.446C63.0614 145.524 68.451 152.261 68.7204 152.53C106.986 172.741 136.898 160.884 139.054 158.728C140.132 157.65 139.324 152.8 137.976 148.218C132.587 149.027 110.22 150.913 109.142 150.644Z" fill="url(#paint33_linear)"/>
<path d="M109.142 150.644C107.795 150.374 98.363 142.559 96.7461 141.481C95.3987 140.673 71.9542 142.829 62.7919 143.637C62.7919 143.907 62.7919 144.176 62.7919 144.446C63.0614 145.524 68.451 152.261 68.7204 152.53C106.986 172.741 136.898 160.884 139.054 158.728C140.132 157.65 139.324 152.8 137.976 148.218C132.587 149.027 110.22 150.913 109.142 150.644Z" fill="url(#paint34_linear)"/>
<path d="M64.6713 140.67C64.6713 140.67 59.0123 137.975 57.9344 137.167C56.587 136.358 32.0645 136.628 30.4476 136.358C28.8308 135.819 18.8601 130.699 18.8601 130.699C18.8601 130.699 18.5906 119.92 12.9316 121.268L14.8179 131.238L17.7822 134.741C17.7822 134.741 7.00305 131.777 4.84722 132.855C2.42192 133.933 0.805054 138.245 0.805054 138.245C0.805054 138.245 17.2432 137.167 33.9509 141.748C43.9215 144.712 54.4312 146.329 64.9408 146.868L64.6713 140.67Z" fill="url(#paint35_linear)"/>
<path d="M64.6712 140.67C64.6712 140.67 59.0122 137.975 57.9342 137.167C56.5869 136.358 32.0644 136.628 30.4475 136.358C28.8306 135.819 18.8599 130.699 18.8599 130.699C18.8599 130.699 18.5905 119.92 12.9314 121.267L14.8178 131.238L17.7821 134.741C17.7821 134.741 7.00292 131.777 4.8471 132.855C2.4218 133.933 0.804932 138.245 0.804932 138.245C0.804932 138.245 17.2431 137.167 33.9507 141.748C43.9214 144.712 54.4311 146.329 64.9407 146.868L64.6712 140.67Z" fill="url(#paint36_linear)"/>
<path d="M31.529 137.439C30.99 137.169 30.451 137.169 29.9121 136.9L30.1816 136.091L27.2173 134.744L26.9478 136.091C23.7141 135.283 20.4803 134.474 16.9771 133.935L17.2466 134.205C16.9771 134.205 15.0908 133.666 12.935 133.127C12.396 133.127 11.857 132.857 11.0486 132.857C9.43175 132.588 7.54539 132.319 6.198 132.319C5.38957 132.319 4.85062 132.319 4.31166 132.319C4.31166 132.319 4.04217 132.319 4.04217 132.588C4.04217 132.588 3.77272 132.588 3.77272 132.857C3.50324 133.127 3.23375 133.127 2.96427 133.666C1.88636 134.744 1.07793 136.361 0.269494 137.978C0.269494 137.978 0.269478 138.247 0 138.247C0 138.247 0.538981 138.247 1.07794 138.247C1.88637 136.361 2.96427 133.935 4.85061 133.396C5.38957 133.127 6.19799 133.127 6.73695 133.127L6.198 138.247H9.97072V133.666C11.3181 133.935 12.6655 134.205 14.0129 134.474C14.5518 134.474 15.3603 134.744 15.8992 134.744L16.9771 138.247L19.9414 138.786L20.4803 135.552C22.3667 135.822 24.253 136.361 25.8699 136.63L26.6783 139.864L29.1036 140.403L29.6426 137.169C30.451 137.439 30.99 137.708 31.529 137.439C31.529 137.708 31.529 137.708 31.529 137.439C31.529 137.708 31.529 137.708 31.529 137.439Z" fill="#213A4A"/>
<path d="M13.4884 125.578L17.5306 124.77L18.0696 126.656L14.0274 127.734L13.4884 125.578Z" fill="#213A4A"/>
<path d="M18.5976 130.434L20.2144 131.243L17.2502 133.938L14.5554 130.704L18.5976 130.434Z" fill="#213A4A"/>
<path d="M139.594 139.323C139.594 139.323 146.601 100.249 148.218 98.6319C149.835 97.015 165.734 85.9664 168.159 86.5053C170.584 87.0443 173.549 92.9728 173.279 93.7812C173.01 94.3202 163.578 108.603 163.309 109.95C163.039 111.297 166.003 129.891 164.117 132.047C162.231 134.203 147.409 149.024 146.062 148.485C144.984 147.677 139.594 139.323 139.594 139.323Z" fill="url(#paint37_linear)"/>
<path d="M139.594 139.323C139.594 139.323 146.601 100.249 148.218 98.6319C149.835 97.015 165.734 85.9664 168.159 86.5053C170.584 87.0443 173.549 92.9728 173.279 93.7812C173.01 94.3202 163.578 108.603 163.309 109.95C163.039 111.297 166.003 129.891 164.117 132.047C162.231 134.203 147.409 149.024 146.062 148.485C144.984 147.677 139.594 139.323 139.594 139.323Z" fill="url(#paint38_linear)"/>
<path d="M163.57 110.224C159.259 113.997 152.791 119.387 152.522 119.926C152.252 120.734 153.33 131.783 153.6 133.938C153.869 135.555 146.324 142.292 143.36 144.987C144.707 146.604 145.785 148.221 146.324 148.49C147.402 149.029 162.223 134.208 164.379 132.052C165.996 129.896 163.57 112.919 163.57 110.224Z" fill="#213A4A"/>
<path d="M143.629 117.767C144.977 116.42 146.054 114.803 147.402 113.186C148.48 111.569 149.558 109.683 150.635 107.797C151.174 106.449 151.713 105.102 152.791 104.024C154.408 102.946 156.295 102.138 157.911 101.06C159.528 99.9818 161.145 98.9039 162.493 97.5565C165.457 94.8618 168.152 91.628 170.307 88.1248C170.577 87.8553 170.846 88.1248 170.577 88.3943C167.074 95.1312 160.876 100.251 154.139 104.024C151.983 105.102 151.713 107.258 150.635 109.144C149.827 110.761 148.749 112.378 147.671 113.995C146.324 115.881 144.976 117.498 143.36 119.384C143.36 118.845 143.629 118.306 143.629 117.767Z" fill="#D4BAB8"/>
<path d="M64.6817 139.861L63.0648 140.399L61.9869 146.867H64.4122L64.6817 139.861Z" fill="#213A4A"/>
<path d="M288.608 246.033L287.53 243.068L286.722 240.912L284.027 233.367L275.673 212.348L267.319 212.617C267.319 212.617 265.433 220.432 264.086 221.78C262.738 223.127 258.696 234.984 258.696 234.984C258.696 234.984 260.852 236.87 262.738 236.601C264.894 236.331 265.703 231.75 265.703 231.75L268.128 230.133L269.745 235.792L271.631 242.529L271.362 243.607L270.014 247.649L269.745 248.458C269.745 248.458 269.745 248.458 270.014 248.458C270.014 248.188 270.284 248.188 270.284 247.919C270.284 248.188 270.014 248.188 270.014 248.458C271.631 250.075 270.823 252.5 271.362 252.231C271.631 252.231 271.901 251.961 272.17 251.961L272.979 251.692L273.517 250.614L275.673 246.841L275.943 246.302L276.212 245.763V246.033C275.943 246.841 275.404 248.997 275.134 251.153L279.177 251.961C280.254 252.231 281.332 251.961 282.141 250.883L283.488 249.266L284.297 248.997L284.566 248.458C284.566 248.727 284.566 248.727 284.566 248.997L287.261 248.458L288.069 247.919H288.608V246.033Z" fill="url(#paint39_linear)"/>
<path d="M263.543 144.976C263.543 144.976 254.111 102.668 252.225 101.051C250.339 99.4344 233.631 88.1164 230.936 88.6554C228.511 89.1943 225.547 95.9313 226.086 96.7397C226.355 97.5481 236.865 112.369 237.134 113.986C237.404 115.603 235.517 135.814 237.673 137.97C239.829 140.126 255.998 155.755 257.076 155.216C258.423 154.138 263.543 144.976 263.543 144.976Z" fill="url(#paint40_linear)"/>
<path d="M263.543 144.976C263.543 144.976 254.111 102.668 252.225 101.051C250.339 99.4344 233.631 88.1164 230.936 88.6554C228.511 89.1943 225.547 95.9313 226.086 96.7397C226.355 97.5481 236.865 112.369 237.134 113.986C237.404 115.603 235.517 135.814 237.673 137.97C239.829 140.126 255.998 155.755 257.076 155.216C258.423 154.138 263.543 144.976 263.543 144.976Z" fill="url(#paint41_linear)"/>
<path d="M226.625 94.3141C226.895 94.0446 226.895 93.5057 227.164 93.2362C229.59 94.8531 232.284 96.2005 234.979 97.5479C236.865 98.6258 238.482 99.4342 240.369 100.243C241.177 100.512 241.986 101.051 243.063 101.321C243.872 101.59 245.489 101.859 246.028 102.398C246.836 102.937 247.106 104.554 247.644 105.363C249.8 109.405 253.034 112.908 256.807 115.333C256.807 115.872 257.076 116.411 257.076 116.95C254.92 115.603 252.765 113.986 251.148 112.1C249.8 110.752 248.722 109.405 247.914 108.057C247.106 106.71 246.567 104.824 245.758 103.746C245.219 102.937 243.872 102.937 243.063 102.398C241.986 101.859 241.177 101.59 240.099 101.051C238.213 100.243 236.326 99.1647 234.44 98.0868C231.476 97.0089 229.051 95.6615 226.625 94.3141Z" fill="#D4BAB8"/>
<path d="M259.241 146.869C258.432 147.138 257.624 147.677 256.815 148.485C256.276 149.294 255.738 150.102 255.468 150.911C254.929 152.797 254.929 154.683 255.737 156.57C256.276 157.917 257.354 159.265 258.702 159.804C261.935 160.881 266.247 156.57 267.056 153.606C267.864 149.563 263.013 145.521 259.241 146.869Z" fill="#13222B"/>
<path d="M275.936 212.344C275.667 211.536 276.475 164.108 274.05 157.91C274.05 157.91 273.511 154.407 269.738 153.598C265.965 152.79 250.066 153.059 249.258 153.598C248.18 154.407 247.102 155.215 247.102 155.215C247.102 155.215 246.563 194.02 268.121 212.614L275.936 212.344Z" fill="#213A4A"/>
<path d="M258.703 153.328C263.284 153.328 267.865 153.328 269.752 153.867C273.524 154.676 274.063 158.179 274.063 158.179C276.758 164.107 275.95 211.536 275.95 212.344L271.099 212.883C266.787 205.607 257.086 189.438 257.086 187.552C257.086 184.857 262.745 179.198 262.476 177.851C262.206 176.234 258.433 158.987 258.703 153.328Z" fill="url(#paint42_linear)"/>
<path d="M258.703 153.328C263.284 153.328 267.865 153.328 269.752 153.867C273.524 154.676 274.063 158.179 274.063 158.179C276.758 164.107 275.95 211.536 275.95 212.344L271.099 212.883C266.787 205.607 257.086 189.438 257.086 187.552C257.086 184.857 262.745 179.198 262.476 177.851C262.206 176.234 258.433 158.987 258.703 153.328Z" fill="url(#paint43_linear)"/>
<path d="M285.651 249.263C285.651 248.724 285.382 247.916 285.382 247.377C285.382 247.107 285.382 247.107 285.382 246.838C285.382 246.299 285.112 245.491 285.112 244.952C285.112 244.682 285.112 244.682 285.112 244.413L286.459 243.874L287.807 243.335L286.998 241.179L285.112 241.987L284.573 242.257C284.573 242.257 284.573 242.257 284.573 241.987C284.304 240.37 283.765 238.754 283.495 237.137C283.495 237.137 283.495 237.137 283.495 236.867C283.495 236.867 283.495 236.867 283.226 236.867C283.226 236.867 283.226 236.867 282.956 236.867C282.956 236.867 282.956 236.867 282.956 237.137C282.956 238.754 283.226 240.37 283.495 241.987C283.495 242.257 283.495 242.526 283.495 242.796L282.417 242.257C281.878 240.101 281.339 237.945 280.8 235.789C280.8 235.52 280.531 235.789 280.531 235.789C281.07 237.676 281.339 239.832 281.609 241.718L277.836 241.987C277.836 241.987 277.836 241.987 277.836 241.718C277.567 239.293 277.028 237.137 276.219 234.711C276.219 234.442 275.95 234.711 275.95 234.711C276.219 236.598 276.758 238.215 277.028 240.101L272.447 241.718L272.177 242.526L271.908 243.065L273.524 243.335L274.333 243.604L275.141 243.874L276.758 244.413C276.758 244.682 276.489 244.952 276.219 245.221C275.95 245.491 275.95 246.03 275.68 246.299C275.68 246.299 275.68 246.568 275.411 246.568C275.141 247.107 274.872 247.646 274.602 248.455C274.333 248.724 274.333 249.263 274.063 249.533L273.524 249.263L272.177 248.724L271.908 248.455L270.56 247.916H270.291L269.482 248.994L268.943 249.533L271.638 251.419L271.908 251.689C271.908 251.689 271.908 251.958 272.447 252.228H272.716L273.524 251.958L274.063 250.611L274.333 250.341C274.333 250.072 274.602 250.072 274.602 249.802C274.872 249.263 275.141 248.994 275.411 248.455C275.68 247.916 275.95 247.107 276.219 246.568V246.838L276.489 246.299L276.758 246.03C276.758 246.03 276.758 246.299 276.758 246.568C276.758 247.107 276.489 247.646 276.219 248.724C275.95 249.533 275.68 250.611 275.68 251.419V251.689L279.723 252.766H279.992H280.261C280.8 252.766 281.609 252.766 281.878 252.497C281.878 252.228 281.878 252.227 281.878 251.958C282.148 250.88 282.417 249.263 282.687 248.994C282.687 248.455 282.956 248.185 282.956 247.646C282.956 247.107 282.956 246.299 282.956 245.76C282.956 245.491 282.956 245.491 282.956 245.221C282.956 245.221 282.956 245.221 282.956 244.952L284.304 245.221C284.304 245.76 284.304 246.568 284.304 247.107C284.304 247.646 284.034 248.455 284.304 248.994C284.034 249.533 284.034 250.341 283.765 250.88L285.382 249.802C285.382 250.072 285.382 250.072 285.382 250.072L288.076 249.263L288.885 248.724L285.651 249.263ZM281.878 247.646C281.609 248.455 281.339 249.263 281.07 250.072L277.836 249.533L276.489 249.263C276.489 248.994 276.489 248.724 276.489 248.455C276.489 247.916 276.489 247.377 276.758 246.838C276.758 246.568 276.758 246.568 276.758 246.299C276.758 245.76 277.028 245.491 277.028 244.952V244.682L281.609 244.413C281.609 244.682 281.609 245.221 281.878 245.491C281.878 246.03 281.878 246.838 281.878 247.377C281.878 247.646 281.878 247.646 281.878 247.646Z" fill="#213A4A"/>
<path d="M264.894 220.971L265.972 218.007L271.362 226.361C270.823 227.977 269.745 229.325 268.667 230.403L268.397 230.133L265.972 231.75C265.972 231.75 265.433 234.714 264.086 236.062C263.277 236.601 261.93 236.601 260.852 236.331C260.044 236.062 259.505 235.523 258.696 234.984C258.696 234.984 258.696 234.714 258.966 234.445C259.774 234.984 260.583 235.523 261.66 235.792C263.547 236.331 264.625 234.984 264.894 233.367L259.774 232.559L260.583 230.403L264.894 232.289C264.894 232.289 264.894 232.289 265.164 232.02C265.703 231.75 266.511 231.481 267.05 230.942L261.66 227.438L262.738 225.013C262.738 225.013 268.128 228.516 268.936 229.325C269.475 228.786 270.014 227.977 270.553 227.438L264.894 220.971Z" fill="#213A4A"/>
<path d="M275.943 212.348L267.589 212.617L267.05 214.773L276.213 213.156L275.943 212.348Z" fill="#213A4A"/>
<path d="M271.364 157.374C272.441 159.53 272.98 162.225 273.25 164.65C273.519 166.267 273.789 168.153 273.789 169.77C273.789 170.848 274.058 172.196 273.25 173.273C272.711 171.118 272.172 168.962 271.902 166.806C271.094 163.572 270.016 161.416 268.13 158.991C266.243 156.296 270.286 154.949 271.364 157.374Z" fill="white"/>
<defs>
<filter id="filter0_f" x="177.227" y="134.297" width="45.1727" height="146.732" filterUnits="userSpaceOnUse" color-interpolation-filters="sRGB">
<feFlood flood-opacity="0" result="BackgroundImageFix"/>
<feBlend mode="normal" in="SourceGraphic" in2="BackgroundImageFix" result="shape"/>
<feGaussianBlur stdDeviation="2" result="effect1_foregroundBlur"/>
</filter>
<filter id="filter1_f" x="161.096" y="75.5479" width="81.8455" height="246.767" filterUnits="userSpaceOnUse" color-interpolation-filters="sRGB">
<feFlood flood-opacity="0" result="BackgroundImageFix"/>
<feBlend mode="normal" in="SourceGraphic" in2="BackgroundImageFix" result="shape"/>
<feGaussianBlur stdDeviation="5" result="effect1_foregroundBlur"/>
</filter>
<filter id="filter2_f" x="181.758" y="166.992" width="33.4224" height="94.0945" filterUnits="userSpaceOnUse" color-interpolation-filters="sRGB">
<feFlood flood-opacity="0" result="BackgroundImageFix"/>
<feBlend mode="normal" in="SourceGraphic" in2="BackgroundImageFix" result="shape"/>
<feGaussianBlur stdDeviation="2" result="effect1_foregroundBlur"/>
</filter>
<linearGradient id="paint0_linear" x1="266.572" y1="243.926" x2="271.179" y2="249.93" gradientUnits="userSpaceOnUse">
<stop stop-color="#D4E3FA"/>
<stop offset="0.3334" stop-color="#DBE4F5"/>
<stop offset="0.8072" stop-color="#EDE8E9"/>
<stop offset="1" stop-color="#F7EAE2"/>
</linearGradient>
<linearGradient id="paint1_linear" x1="275.856" y1="242.93" x2="280.693" y2="252.411" gradientUnits="userSpaceOnUse">
<stop stop-color="#D4E3FA"/>
<stop offset="0.3334" stop-color="#DBE4F5"/>
<stop offset="0.8072" stop-color="#EDE8E9"/>
<stop offset="1" stop-color="#F7EAE2"/>
</linearGradient>
<linearGradient id="paint2_linear" x1="267.98" y1="246.536" x2="272.663" y2="252.637" gradientUnits="userSpaceOnUse">
<stop stop-color="#D4E3FA"/>
<stop offset="0.3334" stop-color="#DBE4F5"/>
<stop offset="0.8072" stop-color="#EDE8E9"/>
<stop offset="1" stop-color="#F7EAE2"/>
</linearGradient>
<linearGradient id="paint3_linear" x1="271.35" y1="243.384" x2="277.393" y2="251.257" gradientUnits="userSpaceOnUse">
<stop stop-color="#D4E3FA"/>
<stop offset="0.3334" stop-color="#DBE4F5"/>
<stop offset="0.8072" stop-color="#EDE8E9"/>
<stop offset="1" stop-color="#F7EAE2"/>
</linearGradient>
<linearGradient id="paint4_linear" x1="208.432" y1="111.849" x2="189.893" y2="132.074" gradientUnits="userSpaceOnUse">
<stop stop-color="#EAAD40"/>
<stop offset="1" stop-color="#DF6633"/>
</linearGradient>
<linearGradient id="paint5_linear" x1="-10277.9" y1="30356.7" x2="-7059.45" y2="21064" gradientUnits="userSpaceOnUse">
<stop stop-color="#D4E3FA"/>
<stop offset="0.3334" stop-color="#DBE4F5"/>
<stop offset="0.8072" stop-color="#EDE8E9"/>
<stop offset="1" stop-color="#F7EAE2"/>
</linearGradient>
<linearGradient id="paint6_linear" x1="189.286" y1="146.941" x2="198.437" y2="99.3501" gradientUnits="userSpaceOnUse">
<stop stop-color="#D4E3FA"/>
<stop offset="0.3334" stop-color="#DBE4F5"/>
<stop offset="0.8072" stop-color="#EDE8E9"/>
<stop offset="1" stop-color="#F7EAE2"/>
</linearGradient>
<linearGradient id="paint7_linear" x1="-40127.7" y1="31870.1" x2="-32663.7" y2="26002.5" gradientUnits="userSpaceOnUse">
<stop stop-color="#D4E3FA"/>
<stop offset="0.3334" stop-color="#DBE4F5"/>
<stop offset="0.8072" stop-color="#EDE8E9"/>
<stop offset="1" stop-color="#F7EAE2"/>
</linearGradient>
<linearGradient id="paint8_linear" x1="169.672" y1="230.462" x2="190.782" y2="165.841" gradientUnits="userSpaceOnUse">
<stop stop-color="#D4E3FA"/>
<stop offset="0.3334" stop-color="#DBE4F5"/>
<stop offset="0.8072" stop-color="#EDE8E9"/>
<stop offset="1" stop-color="#F7EAE2"/>
</linearGradient>
<linearGradient id="paint9_linear" x1="-2511.89" y1="17545.7" x2="-1559.92" y2="11397.9" gradientUnits="userSpaceOnUse">
<stop stop-color="#D4E3FA"/>
<stop offset="0.3334" stop-color="#DBE4F5"/>
<stop offset="0.8072" stop-color="#EDE8E9"/>
<stop offset="1" stop-color="#F7EAE2"/>
</linearGradient>
<linearGradient id="paint10_linear" x1="185.404" y1="99.3983" x2="199.142" y2="43.9125" gradientUnits="userSpaceOnUse">
<stop stop-color="#D4E3FA"/>
<stop offset="0.3334" stop-color="#DBE4F5"/>
<stop offset="0.8072" stop-color="#EDE8E9"/>
<stop offset="1" stop-color="#F7EAE2"/>
</linearGradient>
<radialGradient id="paint11_radial" cx="0" cy="0" r="1" gradientUnits="userSpaceOnUse" gradientTransform="translate(-31918.6 3640.04) rotate(180) scale(6218.85 2165.64)">
<stop stop-color="#274659"/>
<stop offset="0.3334" stop-color="#254152"/>
<stop offset="0.8072" stop-color="#1C3240"/>
<stop offset="1" stop-color="#182A36"/>
</radialGradient>
<linearGradient id="paint12_linear" x1="205.493" y1="32.8654" x2="185.467" y2="32.8654" gradientUnits="userSpaceOnUse">
<stop stop-color="#E6953C"/>
<stop offset="1" stop-color="#E17636"/>
</linearGradient>
<linearGradient id="paint13_linear" x1="-3546.35" y1="1595.69" x2="-3265.29" y2="1480.79" gradientUnits="userSpaceOnUse">
<stop stop-color="#D4E3FA"/>
<stop offset="0.3334" stop-color="#DBE4F5"/>
<stop offset="0.8072" stop-color="#EDE8E9"/>
<stop offset="1" stop-color="#F7EAE2"/>
</linearGradient>
<linearGradient id="paint14_linear" x1="-5728.62" y1="2053.74" x2="-5321.18" y2="1915.13" gradientUnits="userSpaceOnUse">
<stop stop-color="#D4E3FA"/>
<stop offset="0.3334" stop-color="#DBE4F5"/>
<stop offset="0.8072" stop-color="#EDE8E9"/>
<stop offset="1" stop-color="#F7EAE2"/>
</linearGradient>
<linearGradient id="paint15_linear" x1="1656.87" y1="15387.2" x2="1578.7" y2="14565.1" gradientUnits="userSpaceOnUse">
<stop stop-color="#D4E3FA"/>
<stop offset="0.3334" stop-color="#DBE4F5"/>
<stop offset="0.8072" stop-color="#EDE8E9"/>
<stop offset="1" stop-color="#F7EAE2"/>
</linearGradient>
<linearGradient id="paint16_linear" x1="211.604" y1="233.116" x2="216.831" y2="207.029" gradientUnits="userSpaceOnUse">
<stop stop-color="#D4E3FA"/>
<stop offset="0.3334" stop-color="#DBE4F5"/>
<stop offset="0.8072" stop-color="#EDE8E9"/>
<stop offset="1" stop-color="#F7EAE2"/>
</linearGradient>
<linearGradient id="paint17_linear" x1="-10744.2" y1="2252.13" x2="-13884.1" y2="2822.75" gradientUnits="userSpaceOnUse">
<stop stop-color="#274659"/>
<stop offset="0.3334" stop-color="#254152"/>
<stop offset="0.8072" stop-color="#1C3240"/>
<stop offset="1" stop-color="#182A36"/>
</linearGradient>
<linearGradient id="paint18_linear" x1="-26950.5" y1="22919.6" x2="-22983.9" y2="19612.8" gradientUnits="userSpaceOnUse">
<stop stop-color="#D4E3FA"/>
<stop offset="0.3334" stop-color="#DBE4F5"/>
<stop offset="0.8072" stop-color="#EDE8E9"/>
<stop offset="1" stop-color="#F7EAE2"/>
</linearGradient>
<linearGradient id="paint19_linear" x1="216.175" y1="290.642" x2="244.92" y2="241.833" gradientUnits="userSpaceOnUse">
<stop stop-color="#D4E3FA"/>
<stop offset="0.3334" stop-color="#DBE4F5"/>
<stop offset="0.8072" stop-color="#EDE8E9"/>
<stop offset="1" stop-color="#F7EAE2"/>
</linearGradient>
<linearGradient id="paint20_linear" x1="-76045.3" y1="40120.1" x2="-83441.3" y2="43047.3" gradientUnits="userSpaceOnUse">
<stop stop-color="#274659"/>
<stop offset="0.3334" stop-color="#254152"/>
<stop offset="0.8072" stop-color="#1C3240"/>
<stop offset="1" stop-color="#182A36"/>
</linearGradient>
<linearGradient id="paint21_linear" x1="-68849.1" y1="13038.7" x2="-59269.3" y2="12902.8" gradientUnits="userSpaceOnUse">
<stop stop-color="#D4E3FA"/>
<stop offset="0.3334" stop-color="#DBE4F5"/>
<stop offset="0.8072" stop-color="#EDE8E9"/>
<stop offset="1" stop-color="#F7EAE2"/>
</linearGradient>
<linearGradient id="paint22_linear" x1="166.113" y1="335.896" x2="218.861" y2="346.23" gradientUnits="userSpaceOnUse">
<stop stop-color="#D4E3FA"/>
<stop offset="0.3334" stop-color="#DBE4F5"/>
<stop offset="0.8072" stop-color="#EDE8E9"/>
<stop offset="1" stop-color="#F7EAE2"/>
</linearGradient>
<linearGradient id="paint23_linear" x1="-5936.48" y1="-7223.82" x2="-7485.76" y2="-9145.61" gradientUnits="userSpaceOnUse">
<stop stop-color="#D4E3FA"/>
<stop offset="0.3334" stop-color="#DBE4F5"/>
<stop offset="0.8072" stop-color="#EDE8E9"/>
<stop offset="1" stop-color="#F7EAE2"/>
</linearGradient>
<linearGradient id="paint24_linear" x1="70305.8" y1="-103019" x2="71758.4" y2="-105162" gradientUnits="userSpaceOnUse">
<stop stop-color="#D4E3FA"/>
<stop offset="0.3334" stop-color="#DBE4F5"/>
<stop offset="0.8072" stop-color="#EDE8E9"/>
<stop offset="1" stop-color="#F7EAE2"/>
</linearGradient>
<linearGradient id="paint25_linear" x1="1488.09" y1="21846.2" x2="1439.71" y2="21046.4" gradientUnits="userSpaceOnUse">
<stop stop-color="#D4E3FA"/>
<stop offset="0.3334" stop-color="#DBE4F5"/>
<stop offset="0.8072" stop-color="#EDE8E9"/>
<stop offset="1" stop-color="#F7EAE2"/>
</linearGradient>
<linearGradient id="paint26_linear" x1="172.292" y1="229.84" x2="182.392" y2="206.084" gradientUnits="userSpaceOnUse">
<stop stop-color="#D4E3FA"/>
<stop offset="0.3334" stop-color="#DBE4F5"/>
<stop offset="0.8072" stop-color="#EDE8E9"/>
<stop offset="1" stop-color="#F7EAE2"/>
</linearGradient>
<linearGradient id="paint27_linear" x1="168.769" y1="279.923" x2="169.54" y2="234.16" gradientUnits="userSpaceOnUse">
<stop stop-color="#274659"/>
<stop offset="0.3334" stop-color="#254152"/>
<stop offset="0.8072" stop-color="#1C3240"/>
<stop offset="1" stop-color="#182A36"/>
</linearGradient>
<linearGradient id="paint28_linear" x1="106234" y1="2859.46" x2="108118" y2="2905.79" gradientUnits="userSpaceOnUse">
<stop stop-color="#F9EAD8"/>
<stop offset="0.3334" stop-color="#DBE4F5"/>
<stop offset="0.8072" stop-color="#EDE8E9"/>
<stop offset="1" stop-color="#F7EAE2"/>
</linearGradient>
<linearGradient id="paint29_linear" x1="131.555" y1="279.257" x2="168.473" y2="238.544" gradientUnits="userSpaceOnUse">
<stop stop-color="#D4E3FA"/>
<stop offset="0.3334" stop-color="#DBE4F5"/>
<stop offset="0.8072" stop-color="#EDE8E9"/>
<stop offset="1" stop-color="#F7EAE2"/>
</linearGradient>
<linearGradient id="paint30_linear" x1="43753" y1="48130" x2="50101.4" y2="55088.4" gradientUnits="userSpaceOnUse">
<stop stop-color="#274659"/>
<stop offset="0.3334" stop-color="#254152"/>
<stop offset="0.8072" stop-color="#1C3240"/>
<stop offset="1" stop-color="#182A36"/>
</linearGradient>
<linearGradient id="paint31_linear" x1="125603" y1="3453.75" x2="128221" y2="3518.15" gradientUnits="userSpaceOnUse">
<stop stop-color="#F9EAD8"/>
<stop offset="0.3334" stop-color="#DBE4F5"/>
<stop offset="0.8072" stop-color="#EDE8E9"/>
<stop offset="1" stop-color="#F7EAE2"/>
</linearGradient>
<linearGradient id="paint32_linear" x1="123.521" y1="408.127" x2="179.016" y2="360.109" gradientUnits="userSpaceOnUse">
<stop stop-color="#D4E3FA"/>
<stop offset="0.3334" stop-color="#DBE4F5"/>
<stop offset="0.8072" stop-color="#EDE8E9"/>
<stop offset="1" stop-color="#F7EAE2"/>
</linearGradient>
<linearGradient id="paint33_linear" x1="10822.8" y1="29847.4" x2="10524.6" y2="28888.9" gradientUnits="userSpaceOnUse">
<stop stop-color="#D4E3FA"/>
<stop offset="0.3334" stop-color="#DBE4F5"/>
<stop offset="0.8072" stop-color="#EDE8E9"/>
<stop offset="1" stop-color="#F7EAE2"/>
</linearGradient>
<linearGradient id="paint34_linear" x1="97.6085" y1="168.951" x2="101.62" y2="148.33" gradientUnits="userSpaceOnUse">
<stop stop-color="#D4E3FA"/>
<stop offset="0.3334" stop-color="#DBE4F5"/>
<stop offset="0.8072" stop-color="#EDE8E9"/>
<stop offset="1" stop-color="#F7EAE2"/>
</linearGradient>
<linearGradient id="paint35_linear" x1="-61872.1" y1="45238.8" x2="-59176.9" y2="43018.3" gradientUnits="userSpaceOnUse">
<stop stop-color="#D4E3FA"/>
<stop offset="0.3334" stop-color="#DBE4F5"/>
<stop offset="0.8072" stop-color="#EDE8E9"/>
<stop offset="1" stop-color="#F7EAE2"/>
</linearGradient>
<linearGradient id="paint36_linear" x1="31.0349" y1="149.351" x2="35.2496" y2="129.366" gradientUnits="userSpaceOnUse">
<stop stop-color="#D4E3FA"/>
<stop offset="0.3334" stop-color="#DBE4F5"/>
<stop offset="0.8072" stop-color="#EDE8E9"/>
<stop offset="1" stop-color="#F7EAE2"/>
</linearGradient>
<linearGradient id="paint37_linear" x1="13513" y1="71206.4" x2="12091" y2="62103.6" gradientUnits="userSpaceOnUse">
<stop stop-color="#D4E3FA"/>
<stop offset="0.3334" stop-color="#DBE4F5"/>
<stop offset="0.8072" stop-color="#EDE8E9"/>
<stop offset="1" stop-color="#F7EAE2"/>
</linearGradient>
<linearGradient id="paint38_linear" x1="126.949" y1="144.556" x2="160.797" y2="106.779" gradientUnits="userSpaceOnUse">
<stop stop-color="#D4E3FA"/>
<stop offset="0.3334" stop-color="#DBE4F5"/>
<stop offset="0.8072" stop-color="#EDE8E9"/>
<stop offset="1" stop-color="#F7EAE2"/>
</linearGradient>
<linearGradient id="paint39_linear" x1="269.32" y1="226.773" x2="282.024" y2="246.921" gradientUnits="userSpaceOnUse">
<stop stop-color="#D4E3FA"/>
<stop offset="0.3334" stop-color="#DBE4F5"/>
<stop offset="0.8072" stop-color="#EDE8E9"/>
<stop offset="1" stop-color="#F7EAE2"/>
</linearGradient>
<linearGradient id="paint40_linear" x1="-39351.1" y1="22669.8" x2="-35177.9" y2="20293.3" gradientUnits="userSpaceOnUse">
<stop stop-color="#D4E3FA"/>
<stop offset="0.3334" stop-color="#DBE4F5"/>
<stop offset="0.8072" stop-color="#EDE8E9"/>
<stop offset="1" stop-color="#F7EAE2"/>
</linearGradient>
<linearGradient id="paint41_linear" x1="223.385" y1="158.057" x2="249.603" y2="111.243" gradientUnits="userSpaceOnUse">
<stop stop-color="#D4E3FA"/>
<stop offset="0.3334" stop-color="#DBE4F5"/>
<stop offset="0.8072" stop-color="#EDE8E9"/>
<stop offset="1" stop-color="#F7EAE2"/>
</linearGradient>
<linearGradient id="paint42_linear" x1="-23179.7" y1="12542.2" x2="-19802.4" y2="10762" gradientUnits="userSpaceOnUse">
<stop stop-color="#D4E3FA"/>
<stop offset="0.3334" stop-color="#DBE4F5"/>
<stop offset="0.8072" stop-color="#EDE8E9"/>
<stop offset="1" stop-color="#F7EAE2"/>
</linearGradient>
<linearGradient id="paint43_linear" x1="239.982" y1="203.716" x2="276.142" y2="175.983" gradientUnits="userSpaceOnUse">
<stop stop-color="#D4E3FA"/>
<stop offset="0.3334" stop-color="#DBE4F5"/>
<stop offset="0.8072" stop-color="#EDE8E9"/>
<stop offset="1" stop-color="#F7EAE2"/>
</linearGradient>
</defs>
</svg>
